<svg width="2100px" height="2970px" version="1.1" xmlns="http://www.w3.org/2000/svg" xmlns:xlink="http://www.w3.org/1999/xlink" overflow="visible" id="docid">
  <desc>Engraved by Verovio 6.2.0</desc>
  <defs>
    <g id="E050-docid">
      <path transform="scale(1,-1)" d="M441 -245c-23 -4 -48 -6 -76 -6c-59 0 -102 7 -130 20c-88 42 -150 93 -187 154c-26 44 -43 103 -48 176c0 6 -1 13 -1 19c0 54 15 111 45 170c29 57 65 106 110 148s96 85 153 127c-3 16 -8 46 -13 92c-4 43 -5 73 -5 89c0 117 16 172 69 257c34 54 64 82 89 82 c21 0 43 -30 69 -92s39 -115 41 -159v-15c0 -109 -21 -162 -67 -241c-13 -20 -63 -90 -98 -118c-13 -9 -25 -19 -37 -29l31 -181c8 1 18 2 28 2c58 0 102 -12 133 -35c59 -43 92 -104 98 -184c1 -7 1 -15 1 -22c0 -123 -87 -209 -181 -248c8 -57 17 -110 25 -162 c5 -31 6 -58 6 -80c0 -30 -5 -53 -14 -70c-35 -64 -88 -99 -158 -103c-5 0 -11 -1 -16 -1c-37 0 -72 10 -108 27c-50 24 -77 59 -80 105v11c0 29 7 55 20 76c18 28 45 42 79 44h6c49 0 93 -42 97 -87v-9c0 -51 -34 -86 -105 -106c17 -24 51 -36 102 -36c62 0 116 43 140 85 c9 16 13 41 13 74c0 20 -1 42 -5 67c-8 53 -18 106 -26 159zM461 939c-95 0 -135 -175 -135 -286c0 -24 2 -48 5 -71c50 39 92 82 127 128c40 53 60 100 60 140v8c-4 53 -22 81 -55 81h-2zM406 119l54 -326c73 25 110 78 110 161c0 7 0 15 -1 23c-7 95 -57 142 -151 142h-12 zM382 117c-72 -2 -128 -47 -128 -120v-7c2 -46 43 -99 75 -115c-3 -2 -7 -5 -10 -10c-70 33 -116 88 -123 172v11c0 68 44 126 88 159c23 17 49 29 78 36l-29 170c-21 -13 -52 -37 -92 -73c-50 -44 -86 -84 -109 -119c-45 -69 -67 -130 -67 -182v-13c5 -68 35 -127 93 -176 s125 -73 203 -73c25 0 50 3 75 9c-19 111 -36 221 -54 331z" />
    </g>
    <g id="E084-docid">
      <path transform="scale(1,-1)" d="M20 -78c84 97 114 180 134 329h170c-13 -32 -82 -132 -99 -151l-84 -97c-33 -36 -59 -63 -80 -81h162v102l127 123v-225h57v-39h-57v-34c0 -43 19 -65 57 -65v-34h-244v36c48 0 60 26 60 70v27h-203v39z" />
    </g>
    <g id="E0A4-docid">
      <path transform="scale(1,-1)" d="M0 -39c0 68 73 172 200 172c66 0 114 -37 114 -95c0 -84 -106 -171 -218 -171c-64 0 -96 30 -96 94z" />
    </g>
    <g id="E442-docid">
      <path transform="scale(1,-1)" d="M139 106c-32 0 -48 -10 -70 -29v-194c31 31 54 59 71 84c21 32 32 59 32 84c0 9 1 16 1 20c0 14 -3 21 -11 30l-8 3zM69 110c32 16 54 27 93 27c26 0 35 -3 54 -13c13 -7 24 -20 27 -38l4 -25c0 -28 -16 -57 -45 -89c-23 -25 -39 -44 -65 -68l-88 -79v363.467 l-49 -28.4667v36l49 28.4667v244.533h20v-232.914l147 87.9143v-36l-147 -87.9143v-90.0857z" />
    </g>
    <g id="E261-docid">
      <path transform="scale(1,-1)" d="M0 -188v539h18v-191l139 22v-533h-17v186zM18 -100l122 17v176l-122 -19v-174z" />
    </g>
    <g id="E260-docid">
      <path transform="scale(1,-1)" d="M20 110c32 16 54 27 93 27c26 0 35 -3 54 -13c13 -7 24 -20 27 -38l4 -25c0 -28 -16 -57 -45 -89c-23 -25 -39 -44 -65 -68l-88 -79v644h20v-359zM90 106c-32 0 -48 -10 -70 -29v-194c31 31 54 59 71 84c21 32 32 59 32 84c0 9 1 16 1 20c0 14 -3 21 -11 30l-8 3z" />
    </g>
    <g id="E282-docid">
      <path transform="scale(1,-1)" d="M106 179v-91l-44 -14v-165l44 12v-91l-46 -14v-155h-17v149l-43 -13v90l43 14v167l-43 -14v92l43 13v169h17v-163z" />
    </g>
    <g id="E262-docid">
      <path transform="scale(1,-1)" d="M136 186v169h17v-164l44 14v-91l-44 -14v-165l44 12v-91l-44 -13v-155h-17v150l-76 -22v-155h-17v149l-43 -13v90l43 14v167l-43 -14v92l43 13v169h17v-163zM60 73v-167l76 22v168z" />
    </g>
  </defs>
  <style type="text/css">#docid g.ending, #docid g.fing, #docid g.reh, #docid g.tempo {font-weight:bold;}#docid g.dir, #docid g.dynam, #docid g.mNum {font-style:italic;}#docid g.label {font-weight:normal;}#docid ellipse, #docid path, #docid polygon, #docid polyline, #docid rect {stroke:currentColor}</style>
  <svg class="definition-scale" color="black" font-family="Times, serif" viewBox="0 0 21000 29700">
    <g class="page-margin" transform="translate(500, 500)">
      <g id="k1QZOXZ6" class="mdiv pageMilestone" />
      <g id="l1R79M79" class="score pageMilestone" />
      <g id="v1FFBFV0" class="system">
        <g id="m1HU1LAI" class="label">
          <text x="1105" y="1902" text-anchor="end" font-size="0px">
            <tspan id="o1BSR02Q" class="text">
              <tspan font-size="405px">Piano</tspan>
            </tspan>
          </text>
        </g>
        <g id="j8WF87G" class="section systemMilestone" />
        <g id="l1U0O8YX" class="pb" />
        <g id="pc7ekk" class="section systemMilestone" />
        <g id="d1BWDT0J" class="measure">
          <g id="e18KT7XC" class="staff">
            <path d="M1285 1452 L5757 1452" stroke-width="13" />
            <path d="M1285 1632 L5757 1632" stroke-width="13" />
            <path d="M1285 1812 L5757 1812" stroke-width="13" />
            <path d="M1285 1992 L5757 1992" stroke-width="13" />
            <path d="M1285 2172 L5757 2172" stroke-width="13" />
            <g id="o1P5SV7C" class="clef">
              <use xlink:href="#E050-docid" transform="translate(1375, 1992) scale(0.72, 0.72)" />
            </g>
            <g id="q2KDP5H" class="keySig" />
            <g id="s158B1G" class="meterSig">
              <use xlink:href="#E084-docid" transform="translate(2006, 1632) scale(0.72, 0.72)" />
              <use xlink:href="#E084-docid" transform="translate(2006, 1992) scale(0.72, 0.72)" />
            </g>
            <g class="ledgerLines below">
              <path d="M2546 2352 L2868 2352" stroke-width="22" />
            </g>
            <g id="f1ALPHA5" class="layer">
              <g id="g8P09UH" class="note">
                <g class="notehead">
                  <use xlink:href="#E0A4-docid" transform="translate(2594, 2352) scale(0.72, 0.72)" />
                </g>
                <g id="nVGMGJK" class="stem">
                  <path d="M2811 2324 L2811 1722" stroke-width="18" />
                </g>
                <g id="hSIUHO" class="accid" />
              </g>
              <g id="iGY6IFQ" class="note">
                <g class="notehead">
                  <use xlink:href="#E0A4-docid" transform="translate(3381, 2262) scale(0.72, 0.72)" />
                </g>
                <g id="o15FJB3A" class="stem">
                  <path d="M3598 2234 L3598 1632" stroke-width="18" />
                </g>
                <g id="j1PTCU7O" class="accid" />
              </g>
              <g id="k159E2KX" class="note">
                <g class="notehead">
                  <use xlink:href="#E0A4-docid" transform="translate(4169, 2172) scale(0.72, 0.72)" />
                </g>
                <g id="pATW76T" class="stem">
                  <path d="M4386 2144 L4386 1542" stroke-width="18" />
                </g>
                <g id="l115ASIV" class="accid" />
              </g>
              <g id="m1ETJEWL" class="note">
                <g class="notehead">
                  <use xlink:href="#E0A4-docid" transform="translate(4957, 2082) scale(0.72, 0.72)" />
                </g>
                <g id="q1VGWAPO" class="stem">
                  <path d="M5174 2054 L5174 1452" stroke-width="18" />
                </g>
                <g id="nRMI7Y1" class="accid" />
              </g>
            </g>
          </g>
          <g id="c1OX2P3" class="barLine">
            <path d="M5744 1452 L5744 2172" stroke-width="27" />
          </g>
        </g>
        <g id="e1U85AN7" class="measure">
          <g id="f15O2KX" class="staff">
            <path d="M5757 1452 L9225 1452" stroke-width="13" />
            <path d="M5757 1632 L9225 1632" stroke-width="13" />
            <path d="M5757 1812 L9225 1812" stroke-width="13" />
            <path d="M5757 1992 L9225 1992" stroke-width="13" />
            <path d="M5757 2172 L9225 2172" stroke-width="13" />
            <g id="g1S9DZJO" class="layer">
              <g id="h1IT6AJZ" class="note">
                <g class="notehead">
                  <use xlink:href="#E0A4-docid" transform="translate(5963, 1992) scale(0.72, 0.72)" />
                </g>
                <g id="r16HIMV7" class="stem">
                  <path d="M6180 1964 L6180 1362" stroke-width="18" />
                </g>
                <g id="i122EOLC" class="accid" />
              </g>
              <g id="j1U70FFW" class="note">
                <g class="notehead">
                  <use xlink:href="#E0A4-docid" transform="translate(6750, 1902) scale(0.72, 0.72)" />
                </g>
                <g id="sN7VWJX" class="stem">
                  <path d="M6967 1874 L6967 1272" stroke-width="18" />
                </g>
                <g id="k4P6JBE" class="accid" />
              </g>
              <g id="l14R0GIP" class="note">
                <g class="notehead">
                  <use xlink:href="#E0A4-docid" transform="translate(7538, 1812) scale(0.72, 0.72)" />
                </g>
                <g id="tH5K2QU" class="stem">
                  <path d="M7547 1840 L7547 2412" stroke-width="18" />
                </g>
                <g id="m1O2RCXA" class="accid" />
              </g>
              <g id="n19ZOI7E" class="note">
                <g class="notehead">
                  <use xlink:href="#E0A4-docid" transform="translate(8326, 1722) scale(0.72, 0.72)" />
                </g>
                <g id="u1J9R9K1" class="stem">
                  <path d="M8335 1750 L8335 2352" stroke-width="18" />
                </g>
                <g id="o1KPEOQZ" class="accid" />
              </g>
            </g>
          </g>
          <g id="d116H2IS" class="barLine">
            <path d="M9113 1452 L9113 2172" stroke-width="27" />
            <path d="M9212 1452 L9212 2172" stroke-width="27" />
          </g>
        </g>
        <g id="p1WU7W9W" class="sb" />
        <g id="k111EHCV" class="measure">
          <g id="l15D0RVT" class="staff">
            <path d="M9225 1452 L13165 1452" stroke-width="13" />
            <path d="M9225 1632 L13165 1632" stroke-width="13" />
            <path d="M9225 1812 L13165 1812" stroke-width="13" />
            <path d="M9225 1992 L13165 1992" stroke-width="13" />
            <path d="M9225 2172 L13165 2172" stroke-width="13" />
            <g id="j12IRL2Q" class="keySig">
              <g id="lXE3YII" class="keyAccid">
                <use xlink:href="#E442-docid" transform="translate(9315, 1812) scale(0.72, 0.72)" />
              </g>
              <g id="nJDME71" class="keyAccid">
                <use xlink:href="#E442-docid" transform="translate(9529, 1542) scale(0.72, 0.72)" />
              </g>
            </g>
            <g class="ledgerLines below">
              <path d="M9954 2352 L10276 2352" stroke-width="22" />
            </g>
            <g id="m1RWUIDR" class="layer">
              <g id="nJHXMKQ" class="note">
                <g class="notehead">
                  <use xlink:href="#E0A4-docid" transform="translate(10002, 2352) scale(0.72, 0.72)" />
                </g>
                <g id="v1BVLAU1" class="stem">
                  <path d="M10219 2324 L10219 1722" stroke-width="18" />
                </g>
                <g id="o10GWUIO" class="accid" />
              </g>
              <g id="p1WOCXXS" class="note">
                <g class="notehead">
                  <use xlink:href="#E0A4-docid" transform="translate(10789, 2262) scale(0.72, 0.72)" />
                </g>
                <g id="wYCY11Y" class="stem">
                  <path d="M11006 2234 L11006 1632" stroke-width="18" />
                </g>
                <g id="q1OB0S7R" class="accid" />
              </g>
              <g id="r14CZWLS" class="note">
                <g class="notehead">
                  <use xlink:href="#E0A4-docid" transform="translate(11577, 2172) scale(0.72, 0.72)" />
                </g>
                <g id="xZ36MVS" class="stem">
                  <path d="M11794 2144 L11794 1542" stroke-width="18" />
                </g>
                <g id="sVOSJLG" class="accid" />
              </g>
              <g id="t1C0KL1O" class="note">
                <g class="notehead">
                  <use xlink:href="#E0A4-docid" transform="translate(12365, 2082) scale(0.72, 0.72)" />
                </g>
                <g id="yJLCII" class="stem">
                  <path d="M12582 2054 L12582 1452" stroke-width="18" />
                </g>
                <g id="uK8AD5J" class="accid" />
              </g>
            </g>
          </g>
          <g id="j1Y439W4" class="barLine">
            <path d="M13152 1452 L13152 2172" stroke-width="27" />
          </g>
        </g>
        <g id="l1S6BF2" class="measure">
          <g id="m85E12Y" class="staff">
            <path d="M13165 1452 L16633 1452" stroke-width="13" />
            <path d="M13165 1632 L16633 1632" stroke-width="13" />
            <path d="M13165 1812 L16633 1812" stroke-width="13" />
            <path d="M13165 1992 L16633 1992" stroke-width="13" />
            <path d="M13165 2172 L16633 2172" stroke-width="13" />
            <g id="nX8T5AU" class="layer">
              <g id="oA15LRO" class="note">
                <g class="notehead">
                  <use xlink:href="#E0A4-docid" transform="translate(13371, 1992) scale(0.72, 0.72)" />
                </g>
                <g id="zDP7NY" class="stem">
                  <path d="M13588 1964 L13588 1362" stroke-width="18" />
                </g>
                <g id="pBCPNJ7" class="accid" />
              </g>
              <g id="qJ006MR" class="note">
                <g class="notehead">
                  <use xlink:href="#E0A4-docid" transform="translate(14158, 1902) scale(0.72, 0.72)" />
                </g>
                <g id="a1J1CUI2" class="stem">
                  <path d="M14375 1874 L14375 1272" stroke-width="18" />
                </g>
                <g id="r1CX92IM" class="accid" />
              </g>
              <g id="s17H9C2W" class="note">
                <g class="notehead">
                  <use xlink:href="#E0A4-docid" transform="translate(14946, 1812) scale(0.72, 0.72)" />
                </g>
                <g id="bK2F454" class="stem">
                  <path d="M14955 1840 L14955 2412" stroke-width="18" />
                </g>
                <g id="tPL30Y5" class="accid" />
              </g>
              <g id="uBXM84M" class="note">
                <g class="notehead">
                  <use xlink:href="#E0A4-docid" transform="translate(15734, 1722) scale(0.72, 0.72)" />
                </g>
                <g id="cBGM19F" class="stem">
                  <path d="M15743 1750 L15743 2352" stroke-width="18" />
                </g>
                <g id="vMU67Y8" class="accid" />
              </g>
            </g>
          </g>
          <g id="k1RMVINS" class="barLine">
            <path d="M16521 1452 L16521 2172" stroke-width="27" />
            <path d="M16620 1452 L16620 2172" stroke-width="27" />
          </g>
        </g>
        <g id="wV2BERY" class="sb" />
        <g id="n1GOO2FH" class="measure">
          <g id="o1S504W" class="staff">
            <path d="M16633 1452 L20002 1452" stroke-width="13" />
            <path d="M16633 1632 L20002 1632" stroke-width="13" />
            <path d="M16633 1812 L20002 1812" stroke-width="13" />
            <path d="M16633 1992 L20002 1992" stroke-width="13" />
            <path d="M16633 2172 L20002 2172" stroke-width="13" />
            <g id="p1WOOJ3R" class="layer">
              <g id="q162SBPE" class="note">
                <g class="notehead">
                  <use xlink:href="#E0A4-docid" transform="translate(16839, 2172) scale(0.72, 0.72)" />
                </g>
                <g id="d1G6HXSQ" class="stem">
                  <path d="M17056 2144 L17056 1542" stroke-width="18" />
                </g>
                <g id="rPNVHYS" class="accid" />
              </g>
              <g id="sDYJYT2" class="note">
                <g class="notehead">
                  <use xlink:href="#E0A4-docid" transform="translate(17626, 2172) scale(0.72, 0.72)" />
                </g>
                <g id="e1CRE3HQ" class="stem">
                  <path d="M17843 2144 L17843 1542" stroke-width="18" />
                </g>
                <g id="t16MI7AL" class="accid">
                  <use xlink:href="#E261-docid" transform="translate(17468, 2172) scale(0.72, 0.72)" />
                </g>
              </g>
              <g id="u5HZ1H0" class="note">
                <g class="notehead">
                  <use xlink:href="#E0A4-docid" transform="translate(18414, 2172) scale(0.72, 0.72)" />
                </g>
                <g id="fIZJF9P" class="stem">
                  <path d="M18631 2144 L18631 1542" stroke-width="18" />
                </g>
                <g id="vJY3HBT" class="accid">
                  <use xlink:href="#E442-docid" transform="translate(18192, 2172) scale(0.72, 0.72)" />
                </g>
              </g>
              <g id="w1DSRRJ4" class="note">
                <g class="notehead">
                  <use xlink:href="#E0A4-docid" transform="translate(19202, 2172) scale(0.72, 0.72)" />
                </g>
                <g id="g1IPC0CG" class="stem">
                  <path d="M19419 2144 L19419 1542" stroke-width="18" />
                </g>
                <g id="x1TLLEEL" class="accid">
                  <use xlink:href="#E260-docid" transform="translate(19015, 2172) scale(0.72, 0.72)" />
                </g>
              </g>
            </g>
          </g>
          <g id="m8FGJAZ" class="barLine">
            <path d="M19989 1452 L19989 2172" stroke-width="27" />
          </g>
        </g>
      </g>
      <g id="zVPJJHW" class="system">
        <g id="b1N42W52" class="labelAbbr">
          <text x="914" y="4062" text-anchor="end" font-size="0px">
            <tspan id="d1EKHFQT" class="text">
              <tspan font-size="405px">Pno.</tspan>
            </tspan>
          </text>
        </g>
        <g id="o1W7RMVV" class="measure">
          <g id="v1NORPJB" class="mNum autogenerated">
            <text x="1094" y="3369" text-anchor="middle" font-size="0px">
              <tspan id="w8VNRVL" class="text">
                <tspan font-size="324px">6</tspan>
              </tspan>
            </text>
          </g>
          <g id="pAF8BQ8" class="staff">
            <path d="M1094 3612 L5764 3612" stroke-width="13" />
            <path d="M1094 3792 L5764 3792" stroke-width="13" />
            <path d="M1094 3972 L5764 3972" stroke-width="13" />
            <path d="M1094 4152 L5764 4152" stroke-width="13" />
            <path d="M1094 4332 L5764 4332" stroke-width="13" />
            <g id="xX5YMOM" class="clef">
              <use xlink:href="#E050-docid" transform="translate(1184, 4152) scale(0.72, 0.72)" />
            </g>
            <g id="zUQ32WH" class="keySig">
              <g id="b111VVHB" class="keyAccid">
                <use xlink:href="#E442-docid" transform="translate(1829, 3972) scale(0.72, 0.72)" />
              </g>
              <g id="d13RXH3T" class="keyAccid">
                <use xlink:href="#E442-docid" transform="translate(2043, 3702) scale(0.72, 0.72)" />
              </g>
            </g>
            <g id="q15L29BA" class="layer">
              <g id="r9FCRLC" class="note">
                <g class="notehead">
                  <use xlink:href="#E0A4-docid" transform="translate(2515, 4332) scale(0.72, 0.72)" />
                </g>
                <g id="hCRZV17" class="stem">
                  <path d="M2732 4304 L2732 3702" stroke-width="18" />
                </g>
                <g id="s1R07W39" class="accid" />
              </g>
              <g id="t1J6EUVH" class="note">
                <g class="notehead">
                  <use xlink:href="#E0A4-docid" transform="translate(3299, 4332) scale(0.72, 0.72)" />
                </g>
                <g id="i19YMNC6" class="stem">
                  <path d="M3516 4304 L3516 3702" stroke-width="18" />
                </g>
                <g id="u1E6DHS0" class="accid">
                  <use xlink:href="#E282-docid" transform="translate(3178, 4332) scale(0.72, 0.72)" />
                </g>
              </g>
              <g id="vSZQSWX" class="note">
                <g class="notehead">
                  <use xlink:href="#E0A4-docid" transform="translate(4084, 4332) scale(0.72, 0.72)" />
                </g>
                <g id="j9D7K01" class="stem">
                  <path d="M4301 4304 L4301 3702" stroke-width="18" />
                </g>
                <g id="wNOVPAI" class="accid" />
              </g>
              <g id="xINS7VO" class="note">
                <g class="notehead">
                  <use xlink:href="#E0A4-docid" transform="translate(4868, 4332) scale(0.72, 0.72)" />
                </g>
                <g id="kA34UYM" class="stem">
                  <path d="M5085 4304 L5085 3702" stroke-width="18" />
                </g>
                <g id="yF8JBNB" class="accid">
                  <use xlink:href="#E262-docid" transform="translate(4682, 4332) scale(0.72, 0.72)" />
                </g>
              </g>
            </g>
          </g>
          <g id="n1CP10VI" class="barLine">
            <path d="M5652 3612 L5652 4332" stroke-width="27" />
            <path d="M5751 3612 L5751 4332" stroke-width="27" />
          </g>
        </g>
        <g id="z1UPCKNT" class="sb" />
        <g id="v1NO0W86" class="measure">
          <g id="w1MP5ZOK" class="staff">
            <path d="M5764 3612 L9837 3612" stroke-width="13" />
            <path d="M5764 3792 L9837 3792" stroke-width="13" />
            <path d="M5764 3972 L9837 3972" stroke-width="13" />
            <path d="M5764 4152 L9837 4152" stroke-width="13" />
            <path d="M5764 4332 L9837 4332" stroke-width="13" />
            <g id="e122LNVS" class="keySig">
              <g id="g16AXMJ2" class="keyAccid">
                <use xlink:href="#E260-docid" transform="translate(5854, 4152) scale(0.72, 0.72)" />
              </g>
              <g id="i122A7HI" class="keyAccid">
                <use xlink:href="#E260-docid" transform="translate(6034, 3972) scale(0.72, 0.72)" />
              </g>
              <g id="kJRW8UO" class="keyAccid">
                <use xlink:href="#E442-docid" transform="translate(6214, 3702) scale(0.72, 0.72)" />
              </g>
            </g>
            <g id="x33WC89" class="layer">
              <g id="y1MOL3BM" class="note">
                <g class="notehead">
                  <use xlink:href="#E0A4-docid" transform="translate(6686, 4422) scale(0.72, 0.72)" />
                </g>
                <g id="l1D2AGRM" class="stem">
                  <path d="M6903 4394 L6903 3792" stroke-width="18" />
                </g>
                <g id="zJ5KI4C" class="accid" />
              </g>
              <g id="aXO9S1B" class="note">
                <g class="notehead">
                  <use xlink:href="#E0A4-docid" transform="translate(7470, 4332) scale(0.72, 0.72)" />
                </g>
                <g id="mPQOEHG" class="stem">
                  <path d="M7687 4304 L7687 3702" stroke-width="18" />
                </g>
                <g id="bUDUBV6" class="accid" />
              </g>
              <g id="c1U054Z1" class="note">
                <g class="notehead">
                  <use xlink:href="#E0A4-docid" transform="translate(8255, 4242) scale(0.72, 0.72)" />
                </g>
                <g id="nWIH7JU" class="stem">
                  <path d="M8472 4214 L8472 3612" stroke-width="18" />
                </g>
                <g id="d17YZZNW" class="accid" />
              </g>
              <g id="e1NNZPEJ" class="note">
                <g class="notehead">
                  <use xlink:href="#E0A4-docid" transform="translate(9039, 4152) scale(0.72, 0.72)" />
                </g>
                <g id="o1UVJEP4" class="stem">
                  <path d="M9256 4124 L9256 3522" stroke-width="18" />
                </g>
                <g id="f1GA2LLW" class="accid" />
              </g>
            </g>
          </g>
          <g id="uZ3DV63" class="barLine">
            <path d="M9824 3612 L9824 4332" stroke-width="27" />
          </g>
        </g>
        <g id="w1P1I2AD" class="measure">
          <g id="x1XZBAB4" class="staff">
            <path d="M9837 3612 L13193 3612" stroke-width="13" />
            <path d="M9837 3792 L13193 3792" stroke-width="13" />
            <path d="M9837 3972 L13193 3972" stroke-width="13" />
            <path d="M9837 4152 L13193 4152" stroke-width="13" />
            <path d="M9837 4332 L13193 4332" stroke-width="13" />
            <g id="y3SRFPM" class="layer">
              <g id="z2RVCTL" class="note">
                <g class="notehead">
                  <use xlink:href="#E0A4-docid" transform="translate(10042, 4062) scale(0.72, 0.72)" />
                </g>
                <g id="p3SO3NH" class="stem">
                  <path d="M10259 4034 L10259 3432" stroke-width="18" />
                </g>
                <g id="a1F2OFUV" class="accid" />
              </g>
              <g id="b16EGX0O" class="note">
                <g class="notehead">
                  <use xlink:href="#E0A4-docid" transform="translate(10826, 3972) scale(0.72, 0.72)" />
                </g>
                <g id="q1ICGJOQ" class="stem">
                  <path d="M10835 4000 L10835 4572" stroke-width="18" />
                </g>
                <g id="c1JICX35" class="accid" />
              </g>
              <g id="d1K4DT6A" class="note">
                <g class="notehead">
                  <use xlink:href="#E0A4-docid" transform="translate(11611, 3882) scale(0.72, 0.72)" />
                </g>
                <g id="r14W2JIF" class="stem">
                  <path d="M11620 3910 L11620 4512" stroke-width="18" />
                </g>
                <g id="eBQP0TK" class="accid" />
              </g>
              <g id="f1YSA211" class="note">
                <g class="notehead">
                  <use xlink:href="#E0A4-docid" transform="translate(12395, 3792) scale(0.72, 0.72)" />
                </g>
                <g id="sCM7S3A" class="stem">
                  <path d="M12404 3820 L12404 4422" stroke-width="18" />
                </g>
                <g id="g9TNBNT" class="accid" />
              </g>
            </g>
          </g>
          <g id="v1W5RNKA" class="barLine">
            <path d="M13180 3612 L13180 4332" stroke-width="27" />
          </g>
        </g>
        <g id="hF8YZJ6" class="sb" />
        <g id="y1F0C416" class="measure">
          <g id="z1P8SMXA" class="staff">
            <path d="M13193 3612 L16549 3612" stroke-width="13" />
            <path d="M13193 3792 L16549 3792" stroke-width="13" />
            <path d="M13193 3972 L16549 3972" stroke-width="13" />
            <path d="M13193 4152 L16549 4152" stroke-width="13" />
            <path d="M13193 4332 L16549 4332" stroke-width="13" />
            <g id="aOB2JNK" class="layer">
              <g id="bJ47B41" class="note">
                <g class="notehead">
                  <use xlink:href="#E0A4-docid" transform="translate(13398, 3972) scale(0.72, 0.72)" />
                </g>
                <g id="tN84Q36" class="stem">
                  <path d="M13407 4000 L13407 4572" stroke-width="18" />
                </g>
                <g id="c1NN39FP" class="accid" />
              </g>
              <g id="d33W6G8" class="note">
                <g class="notehead">
                  <use xlink:href="#E0A4-docid" transform="translate(14182, 3972) scale(0.72, 0.72)" />
                </g>
                <g id="u1DIJNBO" class="stem">
                  <path d="M14191 4000 L14191 4572" stroke-width="18" />
                </g>
                <g id="e1II46FD" class="accid">
                  <use xlink:href="#E261-docid" transform="translate(14024, 3972) scale(0.72, 0.72)" />
                </g>
              </g>
              <g id="fL18JRP" class="note">
                <g class="notehead">
                  <use xlink:href="#E0A4-docid" transform="translate(14967, 3972) scale(0.72, 0.72)" />
                </g>
                <g id="v1A39X7W" class="stem">
                  <path d="M14976 4000 L14976 4572" stroke-width="18" />
                </g>
                <g id="g1GPL7RO" class="accid" />
              </g>
              <g id="h9I1WM3" class="note">
                <g class="notehead">
                  <use xlink:href="#E0A4-docid" transform="translate(15751, 3972) scale(0.72, 0.72)" />
                </g>
                <g id="w113F6O8" class="stem">
                  <path d="M15760 4000 L15760 4572" stroke-width="18" />
                </g>
                <g id="iL7VN63" class="accid">
                  <use xlink:href="#E442-docid" transform="translate(15529, 3972) scale(0.72, 0.72)" />
                </g>
              </g>
            </g>
          </g>
          <g id="x1VNIN1I" class="barLine">
            <path d="M16536 3612 L16536 4332" stroke-width="27" />
          </g>
        </g>
        <g id="zI9MOU5" class="measure">
          <g id="a7DHI6B" class="staff">
            <path d="M16549 3612 L20004 3612" stroke-width="13" />
            <path d="M16549 3792 L20004 3792" stroke-width="13" />
            <path d="M16549 3972 L20004 3972" stroke-width="13" />
            <path d="M16549 4152 L20004 4152" stroke-width="13" />
            <path d="M16549 4332 L20004 4332" stroke-width="13" />
            <g id="b8ESI8E" class="layer">
              <g id="cET3NO6" class="note">
                <g class="notehead">
                  <use xlink:href="#E0A4-docid" transform="translate(16754, 3972) scale(0.72, 0.72)" />
                </g>
                <g id="x1F7HILI" class="stem">
                  <path d="M16763 4000 L16763 4572" stroke-width="18" />
                </g>
                <g id="d36GT4S" class="accid" />
              </g>
              <g id="e1BCI702" class="note">
                <g class="notehead">
                  <use xlink:href="#E0A4-docid" transform="translate(17538, 3972) scale(0.72, 0.72)" />
                </g>
                <g id="y1KNZRMC" class="stem">
                  <path d="M17547 4000 L17547 4572" stroke-width="18" />
                </g>
                <g id="fQYULBL" class="accid">
                  <use xlink:href="#E262-docid" transform="translate(17352, 3972) scale(0.72, 0.72)" />
                </g>
              </g>
              <g id="gZ6KZR6" class="note">
                <g class="notehead">
                  <use xlink:href="#E0A4-docid" transform="translate(18323, 3972) scale(0.72, 0.72)" />
                </g>
                <g id="z101ZORN" class="stem">
                  <path d="M18332 4000 L18332 4572" stroke-width="18" />
                </g>
                <g id="hF62KWE" class="accid">
                  <use xlink:href="#E260-docid" transform="translate(18136, 3972) scale(0.72, 0.72)" />
                </g>
              </g>
              <g id="i1JOS5ZA" class="note">
                <g class="notehead">
                  <use xlink:href="#E0A4-docid" transform="translate(19107, 3972) scale(0.72, 0.72)" />
                </g>
                <g id="aZ6UB7X" class="stem">
                  <path d="M19116 4000 L19116 4572" stroke-width="18" />
                </g>
                <g id="jW0IALA" class="accid" />
              </g>
            </g>
            <g id="hX2K888" class="keySig" />
          </g>
          <g id="y17XY307" class="barLine">
            <path d="M19892 3612 L19892 4332" stroke-width="27" />
            <path d="M19991 3612 L19991 4332" stroke-width="27" />
          </g>
        </g>
        <g id="k1JI3S56" class="sb" />
      </g>
      <g id="d1DC4VRO" class="system">
        <g id="xA95A3A" class="labelAbbr">
          <text x="914" y="6222" text-anchor="end" font-size="0px">
            <tspan id="z144L3SI" class="text">
              <tspan font-size="405px">Pno.</tspan>
            </tspan>
          </text>
        </g>
        <g id="d1BI445Z" class="measure">
          <g id="fBH7DPC" class="mNum autogenerated">
            <text x="1094" y="5529" text-anchor="middle" font-size="0px">
              <tspan id="gJJ79ER" class="text">
                <tspan font-size="324px">11</tspan>
              </tspan>
            </text>
          </g>
          <g id="e4QU2X2" class="staff">
            <path d="M1094 5772 L4692 5772" stroke-width="13" />
            <path d="M1094 5952 L4692 5952" stroke-width="13" />
            <path d="M1094 6132 L4692 6132" stroke-width="13" />
            <path d="M1094 6312 L4692 6312" stroke-width="13" />
            <path d="M1094 6492 L4692 6492" stroke-width="13" />
            <g id="v1FOFBS2" class="clef">
              <use xlink:href="#E050-docid" transform="translate(1184, 6312) scale(0.72, 0.72)" />
            </g>
            <g id="x1GSKZPQ" class="keySig" />
            <g class="ledgerLines below">
              <path d="M1871 6672 L2193 6672" stroke-width="22" />
            </g>
            <g id="fXENMQ2" class="layer">
              <g id="g18WCBEA" class="note">
                <g class="notehead">
                  <use xlink:href="#E0A4-docid" transform="translate(1919, 6672) scale(0.72, 0.72)" />
                </g>
                <g id="bQUFHH4" class="stem">
                  <path d="M2136 6644 L2136 6042" stroke-width="18" />
                </g>
                <g id="h1XI78YA" class="accid" />
              </g>
              <g id="i9UCI59" class="note">
                <g class="notehead">
                  <use xlink:href="#E0A4-docid" transform="translate(2609, 6582) scale(0.72, 0.72)" />
                </g>
                <g id="c1JXDHIN" class="stem">
                  <path d="M2826 6554 L2826 5952" stroke-width="18" />
                </g>
                <g id="j1DYW52Y" class="accid" />
              </g>
              <g id="kX4H5ZF" class="note">
                <g class="notehead">
                  <use xlink:href="#E0A4-docid" transform="translate(3299, 6492) scale(0.72, 0.72)" />
                </g>
                <g id="d1MYYHYZ" class="stem">
                  <path d="M3516 6464 L3516 5862" stroke-width="18" />
                </g>
                <g id="l11ZYY1B" class="accid" />
              </g>
              <g id="mCC6VU3" class="note">
                <g class="notehead">
                  <use xlink:href="#E0A4-docid" transform="translate(3989, 6402) scale(0.72, 0.72)" />
                </g>
                <g id="eC738UD" class="stem">
                  <path d="M4206 6374 L4206 5772" stroke-width="18" />
                </g>
                <g id="n1SKNEVH" class="accid" />
              </g>
            </g>
          </g>
          <g id="cDGQCZO" class="barLine">
            <path d="M4679 5772 L4679 6492" stroke-width="27" />
          </g>
        </g>
        <g id="eXXXYZS" class="measure">
          <g id="fWLVZF5" class="staff">
            <path d="M4692 5772 L7645 5772" stroke-width="13" />
            <path d="M4692 5952 L7645 5952" stroke-width="13" />
            <path d="M4692 6132 L7645 6132" stroke-width="13" />
            <path d="M4692 6312 L7645 6312" stroke-width="13" />
            <path d="M4692 6492 L7645 6492" stroke-width="13" />
            <g id="g10YIHIP" class="layer">
              <g id="h1VM6542" class="note">
                <g class="notehead">
                  <use xlink:href="#E0A4-docid" transform="translate(4872, 6312) scale(0.72, 0.72)" />
                </g>
                <g id="f1VNTPVA" class="stem">
                  <path d="M5089 6284 L5089 5682" stroke-width="18" />
                </g>
                <g id="iQDLWTP" class="accid" />
              </g>
              <g id="jRK5FQT" class="note">
                <g class="notehead">
                  <use xlink:href="#E0A4-docid" transform="translate(5562, 6222) scale(0.72, 0.72)" />
                </g>
                <g id="gQSJ0GQ" class="stem">
                  <path d="M5779 6194 L5779 5592" stroke-width="18" />
                </g>
                <g id="kD687W8" class="accid" />
              </g>
              <g id="l1INUOM" class="note">
                <g class="notehead">
                  <use xlink:href="#E0A4-docid" transform="translate(6252, 6132) scale(0.72, 0.72)" />
                </g>
                <g id="hNB23X2" class="stem">
                  <path d="M6261 6160 L6261 6732" stroke-width="18" />
                </g>
                <g id="m1JC28D6" class="accid" />
              </g>
              <g id="nLHY7Y2" class="note">
                <g class="notehead">
                  <use xlink:href="#E0A4-docid" transform="translate(6942, 6042) scale(0.72, 0.72)" />
                </g>
                <g id="i1BEX623" class="stem">
                  <path d="M6951 6070 L6951 6672" stroke-width="18" />
                </g>
                <g id="oUSPJFI" class="accid" />
              </g>
            </g>
          </g>
          <g id="dNWP974" class="barLine">
            <path d="M7632 5772 L7632 6492" stroke-width="27" />
          </g>
        </g>
        <g id="p105VCR5" class="sb" />
        <g id="g15HC2NP" class="measure">
          <g id="hJHHXDZ" class="staff">
            <path d="M7645 5772 L10598 5772" stroke-width="13" />
            <path d="M7645 5952 L10598 5952" stroke-width="13" />
            <path d="M7645 6132 L10598 6132" stroke-width="13" />
            <path d="M7645 6312 L10598 6312" stroke-width="13" />
            <path d="M7645 6492 L10598 6492" stroke-width="13" />
            <g id="i1P816UK" class="layer">
              <g id="jFQ88ZT" class="note">
                <g class="notehead">
                  <use xlink:href="#E0A4-docid" transform="translate(7825, 6132) scale(0.72, 0.72)" />
                </g>
                <g id="j17SL6EN" class="stem">
                  <path d="M7834 6160 L7834 6732" stroke-width="18" />
                </g>
                <g id="k5R4VVP" class="accid" />
              </g>
              <g id="l1Y3HXEI" class="note">
                <g class="notehead">
                  <use xlink:href="#E0A4-docid" transform="translate(8515, 6132) scale(0.72, 0.72)" />
                </g>
                <g id="k13KH0G5" class="stem">
                  <path d="M8524 6160 L8524 6732" stroke-width="18" />
                </g>
                <g id="m1G3ZD35" class="accid">
                  <use xlink:href="#E261-docid" transform="translate(8357, 6132) scale(0.72, 0.72)" />
                </g>
              </g>
              <g id="n1KWGRO4" class="note">
                <g class="notehead">
                  <use xlink:href="#E0A4-docid" transform="translate(9205, 6132) scale(0.72, 0.72)" />
                </g>
                <g id="lOUE53X" class="stem">
                  <path d="M9214 6160 L9214 6732" stroke-width="18" />
                </g>
                <g id="o9OA23I" class="accid">
                  <use xlink:href="#E261-docid" transform="translate(9047, 6132) scale(0.72, 0.72)" />
                </g>
              </g>
              <g id="pLP73G7" class="note">
                <g class="notehead">
                  <use xlink:href="#E0A4-docid" transform="translate(9895, 6132) scale(0.72, 0.72)" />
                </g>
                <g id="mWBE2S3" class="stem">
                  <path d="M9904 6160 L9904 6732" stroke-width="18" />
                </g>
                <g id="q1K00Y3L" class="accid" />
              </g>
            </g>
          </g>
          <g id="f13850BH" class="barLine">
            <path d="M10585 5772 L10585 6492" stroke-width="27" />
          </g>
        </g>
        <g id="h1MJ3E4A" class="measure">
          <g id="iRTKX33" class="staff">
            <path d="M10598 5772 L13713 5772" stroke-width="13" />
            <path d="M10598 5952 L13713 5952" stroke-width="13" />
            <path d="M10598 6132 L13713 6132" stroke-width="13" />
            <path d="M10598 6312 L13713 6312" stroke-width="13" />
            <path d="M10598 6492 L13713 6492" stroke-width="13" />
            <g id="j1XIXXZO" class="layer">
              <g id="k1QXQ3O4" class="note">
                <g class="notehead">
                  <use xlink:href="#E0A4-docid" transform="translate(10778, 6132) scale(0.72, 0.72)" />
                </g>
                <g id="nYJOBN4" class="stem">
                  <path d="M10787 6160 L10787 6732" stroke-width="18" />
                </g>
                <g id="lGY5MBN" class="accid" />
              </g>
              <g id="mIEKACD" class="note">
                <g class="notehead">
                  <use xlink:href="#E0A4-docid" transform="translate(11468, 6132) scale(0.72, 0.72)" />
                </g>
                <g id="o1T9XZW6" class="stem">
                  <path d="M11477 6160 L11477 6732" stroke-width="18" />
                </g>
                <g id="n1OWTKBY" class="accid">
                  <use xlink:href="#E261-docid" transform="translate(11310, 6132) scale(0.72, 0.72)" />
                </g>
              </g>
              <g id="o1DHB9OR" class="note">
                <g class="notehead">
                  <use xlink:href="#E0A4-docid" transform="translate(12158, 6132) scale(0.72, 0.72)" />
                </g>
                <g id="p1O8N5K" class="stem">
                  <path d="M12167 6160 L12167 6732" stroke-width="18" />
                </g>
                <g id="p1LGLIZE" class="accid">
                  <use xlink:href="#E261-docid" transform="translate(12000, 6132) scale(0.72, 0.72)" />
                </g>
              </g>
              <g id="qH6W3U8" class="note">
                <g class="notehead">
                  <use xlink:href="#E0A4-docid" transform="translate(12848, 6132) scale(0.72, 0.72)" />
                </g>
                <g id="qT546VR" class="stem">
                  <path d="M12857 6160 L12857 6732" stroke-width="18" />
                </g>
                <g id="rSQQF6J" class="accid" />
              </g>
            </g>
          </g>
          <g id="g1D2Y6BJ" class="barLine">
            <path d="M13538 5772 L13538 6492" stroke-width="27" />
            <path d="M13668 5772 L13668 6492" stroke-width="90" />
          </g>
        </g>
        <g id="bHA78L2" class="systemMilestoneEnd pc7ekk" />
        <g id="c1W8O9CQ" class="systemMilestoneEnd j8WF87G" />
      </g>
      <g id="dSTF0PC" class="pageMilestoneEnd l1R79M79" />
      <g id="e1A5P21R" class="pageMilestoneEnd k1QZOXZ6" />
      <g id="o71ESKT" class="pgHead">
        <text font-size="0px">
          <tspan id="p1AHUKRI" class="rend" x="10000" y="278" text-anchor="middle">
            <tspan id="qFY7GMQ" class="text">
              <tspan font-size="405px">Keys and accidentals</tspan>
            </tspan>
          </tspan>
        </text>
        <text font-size="0px">
          <tspan id="r1YA7QQ5" class="rend" x="10000" y="644" text-anchor="middle">
            <tspan id="s1CP0A9C" class="text">
              <tspan font-size="405px">Advanced accidentals</tspan>
            </tspan>
          </tspan>
        </text>
      </g>
      <g id="fAK2AYF" class="pgFoot autogenerated">
        <g id="g1WG0JHL" class="fig">
          <g class="svg" transform="translate(7750, 28099) scale(10.000000, 10.000000)">
            <g>
              <path fill="#000000" d="M 17.11278,49.26451 V 10.367554 h 12.696511 c 3.288815,7.336676 6.71267,14.610456 10.127281,21.888976 3.419998,-7.484684 6.255515,-14.204887 9.58887,-21.909915 2.436207,0.103726 4.316952,0.08453 6.484294,-0.05808 V 49.264423 H 50.274275 C 50.145222,38.35639 50.016136,27.448368 49.887066,16.540329 45.003488,27.315459 39.967448,38.433564 35.083854,49.208695 34.678996,49.343717 34.426583,49.135619 34.021726,49.270644 29.46588,39.330716 24.910049,29.390805 20.354201,19.450876 20.224341,29.388756 20.09461,39.326619 19.964815,49.264497 H 17.11278 Z M 36.754144,39.324695 C 32.721221,30.512695 28.6883,21.700679 24.655394,12.888662 22.530527,12.750737 22.656775,12.71031 20.714356,12.813974 v 0.966497 c 4.612938,9.99784 9.609439,20.748709 13.87298,30.081745 0.722248,-1.512523 1.444528,-3.025014 2.166808,-4.537521 z m 25.738417,9.939815 c 0,-12.965651 0,-25.931305 0,-38.896956 10.084388,0 20.168791,0 30.253178,0 0,0.960416 0,1.920849 0,2.881265 -6.482825,0 -12.965652,0 -19.448478,0 0,4.802097 0,9.604178 0,14.406277 5.52241,0 11.044819,0 16.567229,0 0,0.960415 0,1.920832 0,2.881248 -5.52241,0 -11.044819,0 -16.567229,0 0,5.282306 0,10.564611 0,15.846917 6.963035,0 13.926068,0 20.889103,0 0,0.960416 0,1.920832 0,2.881249 -10.564597,0 -21.129207,0 -31.693803,0 z m 4.321874,-2.160937 c 0,-11.765131 0,-23.530263 0,-35.295394 -0.720312,0 -1.440625,0 -2.160937,0 0,11.765131 0,23.530263 0,35.295394 0.720312,0 1.440625,0 2.160937,0 z m 32.41413,2.160937 c 0,-12.965651 0,-25.931305 0,-38.896956 2.401045,0 4.802095,0 7.203135,0 0,12.965651 0,25.931305 0,38.896956 -2.40104,0 -4.80209,0 -7.203135,0 z m 2.881265,-2.160937 c 0,-11.765131 0,-23.530263 0,-35.295394 -0.72031,0 -1.44064,0 -2.160953,0 0,11.765131 0,23.530263 0,35.295394 0.720313,0 1.440643,0 2.160953,0 z" />
              <path fill="#000000" d="m 346.3,6.7 c -3.1,0.5 -4.9,4.4 -2.7,6.8 1.2,1.4 2.7,2.4 4.1,3.5 -2.4,5.3 -7.7,8.3 -11.9,12.1 -3.7,2.8 -7,6.2 -9.7,9.9 -2.2,-0.8 -0.91472,-7.718806 -0.62677,-9.5 0.28796,-1.781194 0.72677,-6.4 2.92677,-8.7 1.3,-1.9 3,-3.5 4.5,-5.2 1.2,-3.4 -3.2,-4.9 -5.8,-4.6 -7.3,-0.5 -14.6,2 -20,6.8 -5,4.6 -10,10.1 -11.5,17 -0.9,3.5 -0.2,7.5 2.8,9.9 2.5,2.8 7.4,2.9 9.8,-0.2 1.7,-2.3 3.2,-4.8 3.8,-7.6 -0.1,-2.6 -4.4,-2.3 -4.3,0.2 1.2,2.4 -0.9,4.7 -2.7,6.2 -1.7,0.9 -4.7,0.7 -4.8,-1.7 -1,-5.8 2.1,-11.3 5.2,-16.1 4,-5.8 9.8,-11.2 17.2,-11.8 1.6,0 8.1,-1.2 6.8,1.4 -2.8,2.8 -5.6,6.1 -6,10.3 -1.6,7.7 0.1,15.7 -2.3,23.2 -1.1,3.9 2,2.6 2.5,0.2 3.3,-7.4 8.9,-13.4 15.1,-18.5 4.2,-3.9 9.5,-7.1 11.9,-12.6 1.3,-3.6 1.2,-9 -2.7,-10.9 -0.50431,-0.1767056 -1.06965,-0.1654404 -1.6,-0.1 z m 66,14.5 c -2,0.8 -1.8,4.9 0.8,4.4 3.4,0.4 2.9,-6.2 -0.8,-4.4 z m 0.6,7.3 c -1.3,0.5 -7.6,0.5 -5.4,2.2 4,-0.3 0.7,4.5 0.6,6.7 -0.4,2.9 -2.4,5.9 -1.2,8.8 2.7,1.7 5.6,-0.8 6.8,-3.2 1.6,-1.4 -0.5,-3 -1.2,-0.9 -0.4,0.8 -2.4,3.5 -2.6,1.8 1.1,-5 2.7,-9.9 3.9,-14.9 l -0.1,-0.5 h -0.9 z m -65.1,0.2 c -6.5,1.6 -10.5,9.5 -8.2,15.7 2.1,3.4 7.4,2.9 10.1,0.4 2,-0.2 3.6,-5.3 1,-3.4 -1.4,2 -4,4.2 -6.5,2.8 -2.2,-1.9 -1.9,-5.7 1.7,-5.3 3.1,-0.9 6.9,-2.1 8.1,-5.5 0.9,-2.7 -1.6,-5.2 -4.3,-4.8 h -1.1 -0.7 z m 13.6,0 c -2.2,0 -8.5,1.8 -2.9,2.3 0.9,1.9 -1,4.9 -1.1,7.2 -0.5,2.9 -1.4,5.7 -1.7,8.7 3.7,0.7 3.8,-2.6 4.4,-5.3 0.9,-3.3 1.6,-7 4.1,-9.5 2.4,1.6 6.8,-0.7 3.7,-3.4 -2.9,-0.5 -4.8,2.4 -6.2,4.3 0,-1.2 2.4,-5 -0.2,-4.3 z m 15.8,0 c -6.4,1.3 -9.6,9.1 -7.7,14.9 1.9,4 7.7,3.9 11,1.7 4.1,-3 6,-8.9 4.4,-13.7 -1.3,-3 -4.8,-3.2 -7.6,-3 z m 17,0 c -2.3,0 -8.8,1.9 -3,2.4 0.4,2.5 -1,5.7 -1.4,8.4 -0.7,2.4 -1.8,7.5 2.1,7.2 3.8,-0.1 6.5,-3.5 8.5,-6.3 2,-3.2 4.5,-7 3.3,-10.9 -3.7,-3 -3.6,2.6 -3.1,5.1 -0.7,3.8 -2.7,7.9 -6.2,9.8 -3.6,0.6 -1,-4.3 -0.8,-6.1 0.6,-3.2 1.6,-6.3 1.9,-9.5 h -1.1 z m 30.6,0 c -6.3,1.2 -9.5,8.9 -7.8,14.7 1.5,4 7.2,4.2 10.5,2.4 4.6,-2.8 6.6,-9.3 4.8,-14.3 -1.4,-2.8 -4.8,-3 -7.5,-2.8 z m -75.4,1.7 c 2.1,1.5 0.2,4.7 -1.6,5.7 -1.1,0.4 -5.5,3.4 -4.6,0.7 0.8,-2.7 2.2,-6.2 5.3,-6.6 l 0.9,0.1 z m 30.8,0 c 2.6,1.5 1.3,5.2 0.8,7.6 -0.8,2.7 -1.9,5.9 -4.7,7.1 -5.1,0.8 -4,-5.8 -2.8,-8.8 1,-2.8 3,-6.8 6.7,-5.8 z m 47.1,-0.1 c 2.9,0.7 2,4.7 1.5,6.8 -0.7,3 -1.8,6.7 -5,8 -4.7,0.8 -4,-5.1 -3,-7.9 0.9,-3 2.7,-7.3 6.5,-6.8 z" />
              <g>
                <path d="m 116.56641,37.118164 q 0,-3.251953 2.92968,-6.298828 2.90039,-3.046875 5.99121,-3.046875 1.14258,0 1.81641,0.527344 0.67383,0.527343 0.67383,1.567382 0,2.109375 -2.47559,3.618165 -2.46093,1.49414 -5.18554,1.831054 l -0.83496,0.102539 q -0.19043,0.600586 -0.26368,0.966797 -0.0732,0.351563 -0.0732,0.893555 0,1.289062 0.83496,2.006836 0.84961,0.717773 2.00684,0.717773 1.09863,0 2.3291,-0.732422 0.70312,-0.424804 2.03613,-1.523437 l 0.38086,0.336914 q -0.65918,0.834961 -1.88965,1.713867 -2.18261,1.567383 -4.37988,1.567383 -1.55273,0 -2.72461,-1.098633 -1.17187,-1.098633 -1.17187,-3.149414 z m 3.12011,-2.358398 q 2.79786,-0.410157 4.55567,-1.962891 Q 126,31.229492 126,29.691406 q 0,-0.55664 -0.26367,-0.878906 -0.26367,-0.336914 -0.77637,-0.336914 -0.95215,0 -1.875,0.820312 -0.9082,0.805664 -1.64062,1.831055 -0.77637,1.201172 -1.23047,2.299805 -0.24903,0.585937 -0.52735,1.333008 z" />
                <path d="m 129.47168,41 2.53418,-9.052734 q 0.32226,-1.142579 0.36621,-1.376954 0.0586,-0.249023 0.0586,-0.527343 0,-0.424805 -0.24902,-0.65918 -0.23437,-0.249023 -0.9375,-0.249023 -0.17578,0 -0.35156,0.0293 -0.16113,0.01465 -0.36621,0.04395 v -0.498047 q 0.95215,-0.146484 1.34765,-0.219727 0.41016,-0.07324 0.87891,-0.175781 l 2.62207,-0.571289 q 0.0879,0.05859 0.11719,0.131836 l -1.94824,6.298828 q 1.7871,-2.739258 2.98828,-4.072266 2.10937,-2.358398 3.77929,-2.358398 0.64453,0 1.11328,0.249023 0.89356,0.483399 0.89356,1.743165 0,0.351562 -0.0732,0.732421 -0.0732,0.38086 -0.19043,0.820313 l -1.91895,7.016601 q -0.0586,0.219727 -0.13183,0.541993 -0.0733,0.307617 -0.0733,0.439453 0,0.219726 0.10254,0.395508 0.10254,0.175781 0.33692,0.175781 0.38086,0 0.8789,-0.439453 0.49805,-0.454102 1.62598,-1.918946 l 0.4248,0.38086 q -1.20117,1.625976 -1.90429,2.285156 -1.20117,1.157227 -2.29981,1.157227 -0.49804,0 -0.96679,-0.322266 -0.45411,-0.336914 -0.45411,-1.201172 0,-0.249023 0.0293,-0.527344 0.0439,-0.27832 0.10254,-0.483398 l 1.8457,-7.119141 q 0.14649,-0.585937 0.19043,-0.952148 0.0586,-0.38086 0.0586,-0.541992 0,-0.351563 -0.17578,-0.600586 -0.16114,-0.263672 -0.58594,-0.263672 -1.09863,0 -2.76856,1.992187 -0.98144,1.186524 -1.99218,2.827149 -0.77637,1.274414 -1.23047,2.490234 Q 132.70898,37.821289 131.74219,41 Z" />
                <path d="m 149.12988,33.5 q 0,0.908203 0.27832,1.450195 0.46875,0.893555 1.68457,0.893555 1.31836,0 2.34375,-1.669922 1.04004,-1.68457 1.04004,-3.706055 0,-0.966796 -0.4248,-1.508789 -0.42481,-0.55664 -1.27442,-0.55664 -1.64062,0 -2.65136,1.743164 -0.9961,1.743164 -0.9961,3.354492 z m 0.5127,13.066406 q 1.74316,0 2.88574,-0.834961 1.15723,-0.834961 1.15723,-1.992187 0,-0.878906 -0.60059,-1.479492 -0.32226,-0.322266 -1.04004,-0.688477 -0.60058,-0.292969 -2.03613,-0.834961 -1.4209,-0.556641 -1.64063,-0.556641 -0.38086,0 -1.47949,1.010743 -1.09863,1.02539 -1.09863,2.314453 0,1.948242 1.68457,2.680664 0.87891,0.380859 2.16797,0.380859 z m -5.47852,-2.680664 q 0,-1.098633 0.83496,-2.094726 0.84961,-0.981446 2.68067,-1.962891 -0.36621,-0.234375 -0.60059,-0.483398 -0.23437,-0.263672 -0.23437,-0.688477 0,-0.600586 0.83496,-1.376953 0.46875,-0.439453 1.52343,-1.157227 -0.9375,-0.351562 -1.61132,-0.996093 -0.82032,-0.864258 -0.82032,-2.241211 0,-2.211914 1.72852,-3.676758 1.72852,-1.464844 4.27734,-1.464844 1.33301,0 2.25586,0.424805 0.92285,0.410156 1.08399,0.688476 h 1.97754 v 1.171875 h -1.49414 q 0.0879,0.322266 0.13183,0.585938 0.0439,0.263672 0.0439,0.74707 0,2.373047 -1.84571,3.735352 -1.83105,1.362304 -3.95507,1.362304 -0.21973,0 -0.41016,-0.01465 -0.19043,-0.0293 -0.46875,-0.08789 -0.21973,0 -0.60059,0.424805 -0.3955,0.424805 -0.3955,0.761719 0,0.498047 3.22265,1.699218 3.20801,1.215821 3.20801,3.559571 0,1.757812 -1.61133,3.076172 -1.61133,1.333007 -4.86328,1.333007 -2.25586,0 -3.57422,-0.966796 -1.31836,-0.966797 -1.31836,-2.358399 z" />
                <path d="m 165.03809,27.669922 q 0.13183,0 0.17578,0.08789 0.0586,0.07324 0.0586,0.175782 -0.0146,0.146484 -0.0293,0.219726 l -1.46484,5.668946 0.32227,-0.629883 q 1.05468,-2.06543 2.46093,-3.764649 1.4209,-1.713867 2.69532,-1.713867 0.68847,0 1.05468,0.454102 0.38086,0.454101 0.38086,1.040039 0,0.659179 -0.38086,1.098633 -0.36621,0.424804 -1.02539,0.424804 -0.4541,0 -0.68847,-0.175781 -0.23438,-0.175781 -0.36621,-0.410156 l -0.17579,-0.322266 q -0.0586,-0.08789 -0.14648,-0.131836 -0.0732,-0.05859 -0.19043,-0.05859 -0.57129,0 -1.65527,1.59668 -1.06934,1.59668 -1.91895,3.457031 -0.51269,1.12793 -1.14258,2.988282 Q 162.60645,38.84668 161.94727,41 h -2.25586 l 2.43164,-8.818359 q 0.20507,-0.761719 0.32226,-1.362305 0.13184,-0.600586 0.13184,-0.981445 0,-0.439454 -0.21973,-0.673829 -0.21972,-0.234375 -0.76172,-0.234375 -0.17578,0 -0.43945,0.0293 -0.26367,0.0293 -0.62988,0.07324 v -0.483399 l 0.58593,-0.117187 q 1.14258,-0.234375 2.49024,-0.498047 1.3623,-0.263672 1.43555,-0.263672 z" />
                <path d="m 181.51758,30.423828 q 0,-1.054687 -0.4834,-1.552734 -0.4834,-0.498047 -1.17188,-0.498047 -2.38769,0 -4.43847,3.662109 -1.80176,3.222656 -1.80176,5.551758 0,1.171875 0.49805,1.713867 0.51269,0.527344 1.25976,0.527344 2.21192,0 4.2627,-3.55957 1.875,-3.237305 1.875,-5.844727 z m -1.83106,-2.709961 q 1.15723,0 1.78711,0.600586 0.33692,0.322266 0.52735,0.849609 l 0.0732,0.205079 0.32226,-1.113282 q 0.0586,-0.190429 0.10254,-0.249023 0.0439,-0.07324 0.20508,-0.08789 l 1.65527,-0.190429 q 0.13184,0 0.14649,0.05859 0.0293,0.04395 0,0.175782 -0.0586,0.190429 -0.0879,0.307617 -0.0293,0.102539 -0.0879,0.307617 l -1.34766,5.244141 q -0.43945,1.713867 -0.74707,2.958984 -0.54199,2.255859 -0.54199,2.578125 0,0.205078 0.10254,0.307617 0.11719,0.08789 0.27832,0.08789 0.13183,0 0.27832,-0.08789 0.16113,-0.08789 0.38086,-0.263672 l 0.24902,-0.205078 q 0.11719,-0.102539 0.26367,-0.234375 0.14649,-0.146484 0.35157,-0.351562 l 0.9082,-0.9375 0.35156,0.307617 q -1.52344,1.948242 -2.44629,2.651367 -0.92285,0.688477 -1.75781,0.688477 -0.54199,0 -0.84961,-0.38086 -0.29297,-0.380859 -0.29297,-0.952148 0,-0.527344 0.19043,-1.508789 0.20508,-0.996094 0.39551,-1.669922 -0.26367,0.439453 -0.89356,1.289062 -0.61523,0.834961 -1.52343,1.625977 -1.06934,0.952148 -2.05078,1.347656 -0.76172,0.263672 -1.46485,0.263672 -1.18652,0 -2.15332,-0.966797 -0.96679,-0.981445 -0.96679,-2.768555 0,-3.076171 2.7539,-6.416015 2.8418,-3.47168 5.88867,-3.47168 z" />
                <path d="m 196.66406,27.772461 q 0.82031,0 1.25977,0.585937 0.43945,0.585938 0.43945,1.333008 0,1.977539 -3.91113,6.928711 -3.70606,4.702149 -4.43848,4.702149 -0.21972,0 -0.29297,-0.600586 -0.0439,-0.336914 -0.0439,-1.142578 0,-0.981446 -0.19043,-3.325196 -0.19043,-2.34375 -0.36621,-3.471679 -0.36621,-2.475586 -0.71778,-3.19336 -0.35156,-0.717773 -1.333,-0.717773 -0.16114,0 -0.38086,0.01465 -0.20508,0.01465 -0.4834,0.04395 v -0.380859 q 0.43945,-0.08789 1.8457,-0.395508 1.40625,-0.307617 1.49414,-0.336914 l 0.4834,-0.146484 q 0.20508,-0.05859 0.32227,0.234375 0.11718,0.27832 0.29296,1.054687 0.55665,2.548828 0.83497,5.024414 0.17578,1.538086 0.35156,4.555664 l 0.4834,-0.512695 q 1.50879,-1.59668 3.01757,-3.793945 1.50879,-2.197266 1.50879,-3.105469 0,-0.454101 -0.65918,-1.083984 -0.65918,-0.644532 -0.65918,-1.171875 0,-0.483399 0.32227,-0.791016 0.33691,-0.307617 0.82031,-0.307617 z" />
                <path d="m 199.82812,37.118164 q 0,-3.251953 2.92969,-6.298828 2.90039,-3.046875 5.99121,-3.046875 1.14258,0 1.81641,0.527344 0.67383,0.527343 0.67383,1.567382 0,2.109375 -2.47559,3.618165 -2.46094,1.49414 -5.18555,1.831054 l -0.83496,0.102539 q -0.19043,0.600586 -0.26367,0.966797 -0.0732,0.351563 -0.0732,0.893555 0,1.289062 0.83496,2.006836 0.84961,0.717773 2.00684,0.717773 1.09863,0 2.3291,-0.732422 0.70312,-0.424804 2.03613,-1.523437 l 0.38086,0.336914 q -0.65918,0.834961 -1.88965,1.713867 -2.18262,1.567383 -4.37988,1.567383 -1.55274,0 -2.72461,-1.098633 -1.17188,-1.098633 -1.17188,-3.149414 z m 3.12012,-2.358398 q 2.79785,-0.410157 4.55567,-1.962891 1.75781,-1.567383 1.75781,-3.105469 0,-0.55664 -0.26367,-0.878906 -0.26368,-0.336914 -0.77637,-0.336914 -0.95215,0 -1.875,0.820312 -0.9082,0.805664 -1.64063,1.831055 -0.77636,1.201172 -1.23046,2.299805 -0.24903,0.585937 -0.52735,1.333008 z" />
                <path d="m 215.23828,37.601562 q 0,0.893555 0.41016,1.567383 0.41015,0.65918 1.3916,0.65918 2.09473,0 4.02832,-3.369141 1.81641,-3.164062 1.81641,-5.991211 0,-0.893554 -0.29297,-1.479492 -0.29297,-0.585937 -1.18653,-0.585937 -2.22656,0 -4.30664,3.603515 -1.86035,3.222657 -1.86035,5.595703 z m 6.00586,-9.887695 q 1.15723,0 1.64063,0.556641 0.27832,0.322265 0.43945,1.098633 l 1.66992,-6.00586 q 0.0732,-0.249023 0.0879,-0.439453 0.0293,-0.205078 0.0293,-0.351562 0,-0.571289 -0.21973,-0.717774 -0.20508,-0.146484 -0.60058,-0.146484 -0.24903,0 -0.46875,0.01465 -0.20508,0.01465 -0.55665,0.04395 v -0.483399 q 1.65528,-0.219726 4.58497,-0.761719 l 0.13183,0.146485 -0.0293,0.161133 -2.8125,10.532226 -1.91894,6.972656 q -0.0586,0.234375 -0.10254,0.439453 -0.0293,0.19043 -0.0293,0.351563 0,0.395508 0.19043,0.512695 0.20508,0.117188 0.35157,0.117188 0.4248,0 1.20117,-0.747071 0.4541,-0.454101 1.24511,-1.40625 l 0.33692,0.322266 -0.20508,0.307617 q -0.54199,0.805664 -1.3916,1.640625 -1.50879,1.479492 -2.70996,1.479492 -0.39551,0 -0.71778,-0.175781 -0.60058,-0.351562 -0.60058,-1.259765 0,-0.307618 0.0879,-0.981446 0.0879,-0.673828 0.26367,-1.464843 -1.11328,1.699218 -2.44629,2.783203 -1.31836,1.083984 -2.88574,1.083984 -1.27441,0 -2.22656,-0.908203 -0.95215,-0.908203 -0.95215,-2.797852 0,-3.193359 2.92969,-6.5625 2.91504,-3.354492 5.68359,-3.354492 z" />
                <path d="m 254.12988,29.530273 q 0,1.230469 -1.18652,3.251954 -0.65918,1.127929 -1.86035,2.739257 -1.23047,1.655274 -2.53418,3.266602 -2.06543,2.548828 -2.43164,2.548828 -0.16114,0 -0.20508,-0.131836 -0.044,-0.131836 -0.11719,-0.893555 l -0.86426,-9.125976 -6.0791,9.960937 q -0.0439,0.08789 -0.11719,0.117188 -0.0586,0.0293 -0.13183,0.0293 l -0.20508,-0.04395 -0.0293,-0.131836 -0.17578,-3.618164 q -0.0586,-1.21582 -0.17578,-2.504882 -0.10254,-1.303711 -0.20508,-2.25586 -0.30761,-2.651367 -0.65918,-3.251953 -0.33691,-0.600586 -1.25976,-0.600586 -0.17578,0 -0.35156,0.01465 -0.17579,0 -0.36622,0.0293 v -0.424804 q 0.60059,-0.102539 1.14258,-0.219727 0.55664,-0.117187 1.21582,-0.263672 l 1.37696,-0.351562 q 0.49804,0 1.01074,4.174805 0.27832,2.285156 0.49805,5.200195 l 5.75683,-9.09668 q 0.0586,-0.117187 0.14649,-0.19043 0.0879,-0.08789 0.20507,-0.08789 0.13184,0 0.17578,0.08789 0.0439,0.08789 0.0586,0.263672 l 0.98144,10.590821 q 0.10254,-0.131836 1.62598,-2.06543 1.52344,-1.948242 1.59668,-2.06543 1.09863,-1.582031 1.46484,-2.446289 0.23438,-0.55664 0.23438,-1.083984 0,-0.205078 -0.0586,-0.38086 -0.0586,-0.190429 -0.27833,-0.395507 L 251.87402,29.75 q -0.19043,-0.19043 -0.33691,-0.410156 -0.13184,-0.234375 -0.13184,-0.541992 0,-0.366211 0.24903,-0.747071 0.26367,-0.380859 0.9375,-0.380859 0.54199,0 1.04004,0.439453 0.49804,0.424805 0.49804,1.420898 z" />
                <path d="m 261.17578,24.520508 q -0.60058,0 -1.02539,-0.46875 -0.4248,-0.46875 -0.4248,-1.12793 0,-0.673828 0.4248,-1.142578 0.42481,-0.46875 1.02539,-0.46875 0.60059,0 1.02539,0.46875 0.43945,0.46875 0.43945,1.142578 0,0.673828 -0.43945,1.142578 -0.4248,0.454102 -1.02539,0.454102 z m 0.35156,3.208008 q 0.0879,0.04395 0.0733,0.117187 l -2.95899,10.458984 q -0.20508,0.834961 -0.20508,0.996094 0,0.219727 0.0879,0.38086 0.0733,0.175781 0.36621,0.175781 0.49805,0 1.31836,-0.864258 0.4834,-0.512695 1.18653,-1.464844 l 0.38086,0.322266 -0.14649,0.205078 q -1.09863,1.538086 -1.8164,2.211914 -1.12793,1.054688 -2.19727,1.054688 -0.62988,0 -1.05469,-0.527344 -0.41015,-0.527344 -0.41015,-1.245117 0,-0.424805 0.0586,-0.732422 0.0586,-0.322266 0.21973,-0.9375 l 2.05078,-7.529297 q 0.0439,-0.175781 0.0732,-0.322266 0.0293,-0.146484 0.0293,-0.292968 0,-0.527344 -0.39551,-0.644532 -0.38086,-0.131836 -1.52344,-0.131836 v -0.483398 q 1.21582,-0.146484 1.74317,-0.219727 0.54199,-0.08789 1.08398,-0.175781 0.70313,-0.117187 1.33301,-0.263672 0.62988,-0.146484 0.70312,-0.08789 z" />
                <path d="m 264.17871,40.033203 q 0,-0.117187 0.0146,-0.263672 0.0147,-0.161133 0.0586,-0.322265 l 2.75391,-10.239258 h -2.22656 q 0,-0.395508 0.0586,-0.498047 0.0586,-0.102539 0.29297,-0.205078 1.47949,-0.629883 2.28516,-1.215821 0.82031,-0.585937 2.22656,-2.255859 l 0.23437,-0.27832 q 0.0439,-0.05859 0.10254,-0.08789 0.0732,-0.04395 0.14649,-0.04395 0.14648,0.0293 0.20507,0.05859 0.0439,0.102539 0.0439,0.190429 0.0147,0.07324 0,0.161133 l -0.83496,3.193359 h 2.38769 l -0.17578,0.981446 h -2.49023 l -2.63672,9.858398 q -0.0732,0.263672 0.0439,0.512696 0.11718,0.234375 0.3955,0.234375 0.38086,0 1.06934,-0.761719 0.39551,-0.410156 1.33301,-1.625977 l 0.38086,0.219727 -0.20508,0.307617 q -1.25977,1.889648 -2.22656,2.636719 -0.95215,0.732422 -1.81641,0.732422 -0.74707,0 -1.08399,-0.395508 -0.33691,-0.395508 -0.33691,-0.893555 z" />
                <path d="m 274.69629,21.356445 q 0.9375,-0.131836 1.50879,-0.205078 0.58594,-0.08789 1.01074,-0.161133 1.72852,-0.336914 1.86035,-0.366211 0.13184,-0.0293 0.20508,-0.0293 0.17578,0.08789 0.17578,0.219726 l -3.44238,13.081055 q 1.8457,-2.72461 3.01758,-3.984375 2.05078,-2.167969 3.76464,-2.167969 0.70313,0 1.34766,0.454102 0.65918,0.439453 0.65918,1.596679 0,0.278321 -0.0732,0.717774 -0.0732,0.439453 -0.17578,0.776367 l -1.97754,7.016601 q -0.0879,0.292969 -0.14649,0.57129 -0.0586,0.263671 -0.0586,0.483398 0,0.249023 0.11719,0.380859 0.11719,0.117188 0.33691,0.117188 0.4541,0 1.06934,-0.629883 0.38086,-0.395508 1.4209,-1.728516 l 0.38086,0.351563 q -1.0254,1.523437 -1.74317,2.226562 -1.27441,1.245118 -2.56348,1.245118 -0.58593,0 -0.98144,-0.366211 -0.39551,-0.366211 -0.39551,-1.054688 0,-0.19043 0.0147,-0.351562 0.0293,-0.175782 0.0879,-0.38086 l 2.25586,-8.583984 q 0.0293,-0.117188 0.0439,-0.234375 0.0293,-0.131836 0.0293,-0.263672 0,-0.366211 -0.21972,-0.571289 -0.23438,-0.205078 -0.60059,-0.205078 -0.98145,0 -2.47559,1.582031 -1.49414,1.567383 -2.51953,3.208008 -0.70312,1.157226 -1.06933,2.182617 Q 275.20898,37.308594 274.18359,41 h -2.2705 l 4.6875,-17.768555 q 0.0439,-0.190429 0.0586,-0.322265 0.0147,-0.131836 0.0147,-0.249024 0,-0.629883 -0.41016,-0.74707 -0.41015,-0.131836 -1.56738,-0.07324 z" />
              </g>
            </g>
          </g>
        </g>
      </g>
    </g>
  </svg>
</svg>
