<?xml version="1.0" encoding="UTF-8" standalone="no"?>
<svg width="2100px" height="2970px" version="1.1" xmlns="http://www.w3.org/2000/svg" xmlns:xlink="http://www.w3.org/1999/xlink" overflow="visible" id="s8qob3q">
   <desc>Engraved by Verovio 6.2.0</desc>
   <defs>
      <g id="E003-s8qob3q">
         <path transform="scale(1,-1)" d="M0 -0v111c0 0 62 1 63 1c70 0 233 16 321 170c1 1 15 -5 15 -6c-5 -7 -57 -176 -263 -271c-24 -4 -53 -5 -83 -5h-53z" />
      </g>
      <g id="E004-s8qob3q">
         <path transform="scale(1,-1)" d="M0 0h53c30 0 59 -1 83 -5c206 -95 258 -264 263 -271c0 -1 -14 -7 -15 -6c-88 154 -251 170 -321 170c-1 0 -63 1 -63 1v111z" />
      </g>
      <g id="E050-s8qob3q">
         <path transform="scale(1,-1)" d="M441 -245c-23 -4 -48 -6 -76 -6c-59 0 -102 7 -130 20c-88 42 -150 93 -187 154c-26 44 -43 103 -48 176c0 6 -1 13 -1 19c0 54 15 111 45 170c29 57 65 106 110 148s96 85 153 127c-3 16 -8 46 -13 92c-4 43 -5 73 -5 89c0 117 16 172 69 257c34 54 64 82 89 82 c21 0 43 -30 69 -92s39 -115 41 -159v-15c0 -109 -21 -162 -67 -241c-13 -20 -63 -90 -98 -118c-13 -9 -25 -19 -37 -29l31 -181c8 1 18 2 28 2c58 0 102 -12 133 -35c59 -43 92 -104 98 -184c1 -7 1 -15 1 -22c0 -123 -87 -209 -181 -248c8 -57 17 -110 25 -162 c5 -31 6 -58 6 -80c0 -30 -5 -53 -14 -70c-35 -64 -88 -99 -158 -103c-5 0 -11 -1 -16 -1c-37 0 -72 10 -108 27c-50 24 -77 59 -80 105v11c0 29 7 55 20 76c18 28 45 42 79 44h6c49 0 93 -42 97 -87v-9c0 -51 -34 -86 -105 -106c17 -24 51 -36 102 -36c62 0 116 43 140 85 c9 16 13 41 13 74c0 20 -1 42 -5 67c-8 53 -18 106 -26 159zM461 939c-95 0 -135 -175 -135 -286c0 -24 2 -48 5 -71c50 39 92 82 127 128c40 53 60 100 60 140v8c-4 53 -22 81 -55 81h-2zM406 119l54 -326c73 25 110 78 110 161c0 7 0 15 -1 23c-7 95 -57 142 -151 142h-12 zM382 117c-72 -2 -128 -47 -128 -120v-7c2 -46 43 -99 75 -115c-3 -2 -7 -5 -10 -10c-70 33 -116 88 -123 172v11c0 68 44 126 88 159c23 17 49 29 78 36l-29 170c-21 -13 -52 -37 -92 -73c-50 -44 -86 -84 -109 -119c-45 -69 -67 -130 -67 -182v-13c5 -68 35 -127 93 -176 s125 -73 203 -73c25 0 50 3 75 9c-19 111 -36 221 -54 331z" />
      </g>
      <g id="E262-s8qob3q">
         <path transform="scale(1,-1)" d="M136 186v169h17v-164l44 14v-91l-44 -14v-165l44 12v-91l-44 -13v-155h-17v150l-76 -22v-155h-17v149l-43 -13v90l43 14v167l-43 -14v92l43 13v169h17v-163zM60 73v-167l76 22v168z" />
      </g>
      <g id="E083-s8qob3q">
         <path transform="scale(1,-1)" d="M208 250c97 0 177 -52 177 -116c0 -69 -40 -111 -118 -125c56 -5 125 -44 125 -116c0 -31 -10 -57 -31 -78c-19 -21 -45 -38 -78 -49l-50 -11c-15 -3 -36 -7 -55 -7c-50 0 -86 16 -113 38c-16 10 -23 18 -34 34c-7 13 -11 25 -11 38c0 43 27 83 68 83l3 -2 c61 0 75 -42 75 -70c0 -19 -24 -42 -26 -57c7 -17 20 -25 37 -25c44 0 94 29 94 78c0 75 -34 125 -138 125v36c84 0 131 22 131 98c0 54 -37 88 -87 88c-26 0 -43 -7 -51 -22c15 -22 44 -16 44 -70c0 -37 -37 -62 -71 -62c-22 0 -69 15 -69 76c0 79 101 116 178 116z" />
      </g>
      <g id="E084-s8qob3q">
         <path transform="scale(1,-1)" d="M20 -78c84 97 114 180 134 329h170c-13 -32 -82 -132 -99 -151l-84 -97c-33 -36 -59 -63 -80 -81h162v102l127 123v-225h57v-39h-57v-34c0 -43 19 -65 57 -65v-34h-244v36c48 0 60 26 60 70v27h-203v39z" />
      </g>
      <g id="E4E5-s8qob3q">
         <path transform="scale(1,-1)" d="M107 292c-13 24 -30 49 -52 71c-1 1 0 2 0 3l-2 2c3 3 4 4 6 4c12 0 26 -7 40 -20s44 -40 89 -81c26 -24 28 -29 46 -47c4 -4 8 -9 10 -14c6 -8 8 -16 8 -27c0 -19 -12 -40 -36 -61c-28 -23 -49 -38 -61 -73c-4 -11 -7 -27 -10 -50c13 -43 34 -83 59 -121 c31 -47 59 -79 101 -129c-8 0 -26 7 -54 20l-62 29l-21 6l-23 1c-25 0 -45 -10 -60 -30l-4 -14l-1 -12c0 -33 20 -56 39 -78c8 -9 17 -18 26 -26c17 -15 27 -24 28 -30l-3 -3c-11 5 -19 10 -25 15c-9 3 -37 21 -45 26c-24 14 -45 32 -63 51c-19 21 -37 44 -37 71 c0 63 27 95 80 95c41 0 86 -18 136 -52c-19 26 -37 48 -55 66c-23 23 -48 44 -73 65c-28 23 -47 40 -58 53s-17 26 -18 39c75 64 113 125 113 183c0 27 -7 48 -18 68z" />
      </g>
      <g id="E0A4-s8qob3q">
         <path transform="scale(1,-1)" d="M0 -39c0 68 73 172 200 172c66 0 114 -37 114 -95c0 -84 -106 -171 -218 -171c-64 0 -96 30 -96 94z" />
      </g>
      <g id="E062-s8qob3q">
         <path transform="scale(1,-1)" d="M582 -120c0 32 26 58 58 58s58 -26 58 -58s-26 -58 -58 -58s-58 26 -58 58zM582 120c0 32 26 58 58 58s58 -26 58 -58s-26 -58 -58 -58s-58 26 -58 58zM158 96c51 0 73 -14 88 -49l16 -39c0 -17 -2 -30 -7 -40c-3 -11 -10 -21 -19 -31c-17 -18 -49 -43 -84 -43 c-55 0 -77 13 -112 44c-24 21 -35 55 -35 100c0 46 14 81 32 112c30 52 71 79 137 93l36 6l26 2c154 0 235 -68 274 -182c11 -32 18 -68 18 -107c0 -103 -26 -182 -68 -250c-89 -145 -234 -230 -412 -288l-30 -5c-9 0 -14 3 -14 8c3 10 5 11 10 16c35 15 70 30 96 44l78 43 c96 57 162 136 197 258c9 33 17 60 22 100c3 22 5 35 6 39c-7 69 -16 115 -23 140s-4 22 -16 40c-8 12 -19 23 -31 34c-24 21 -62 44 -118 44c-48 0 -84 -8 -113 -28c-28 -19 -42 -44 -42 -73v-16c2 -5 3 -9 4 -11c24 22 52 39 84 39z" />
      </g>
      <g id="E4E3-s8qob3q">
         <path transform="scale(1,-1)" d="M0 -115v105c0 9 1 10 10 10h280c9 0 10 -1 10 -10v-105c0 -9 -1 -10 -10 -10h-280c-9 0 -10 1 -10 10z" />
      </g>
      <g id="E0A3-s8qob3q">
         <path transform="scale(1,-1)" d="M278 64c0 22 -17 39 -43 39c-12 0 -26 -3 -41 -10c-85 -43 -165 -94 -165 -156c5 -25 15 -32 49 -32c67 11 200 95 200 159zM0 -36c0 68 73 174 200 174c66 0 114 -39 114 -97c0 -84 -106 -173 -218 -173c-64 0 -96 32 -96 96z" />
      </g>
   </defs>
   <style type="text/css">#s8qob3q g.ending, #s8qob3q g.fing, #s8qob3q g.reh, #s8qob3q g.tempo {font-weight:bold;}#s8qob3q g.dir, #s8qob3q g.dynam, #s8qob3q g.mNum {font-style:italic;}#s8qob3q g.label {font-weight:normal;}#s8qob3q ellipse, #s8qob3q path, #s8qob3q polygon, #s8qob3q polyline, #s8qob3q rect {stroke:currentColor}</style>
   <svg class="definition-scale" color="black" font-family="Times, serif" viewBox="0 0 21000 29700">
      <g class="page-margin" transform="translate(500, 500)">
         <g id="t1sep9bd" class="mdiv pageMilestone" />
         <g id="u1x1zd52" class="score pageMilestone" />
         <g id="n1ddbgn7" class="system">
            <path d="M13 1269 L13 7389" stroke-width="27" />
            <g id="n1j00zg8" class="grpSym">
               <use xlink:href="#E003-s8qob3q" transform="translate(-180, 3018) scale(0.72, 0.72)" />
               <use xlink:href="#E004-s8qob3q" transform="translate(-180, 7440) scale(0.72, 0.72)" />
               <rect x="-180" y="3012" height="4434" width="90" />
            </g>
            <g id="q1qg3vnw" class="grpSym">
               <path d="M-252,5571 C-612,5031 -162,4509 -432,4329 C-99,4509 -549,5031 -252,5571" stroke-width="18" stroke-linecap="round" stroke-linejoin="round" />
               <path d="M-252,3087 C-549,3627 -99,4149 -432,4329 C-162,4149 -612,3627 -252,3087" stroke-width="18" stroke-linecap="round" stroke-linejoin="round" />
            </g>
            <g id="u1xkwl0n" class="section systemMilestone" />
            <g id="v1dye1mo" class="measure">
               <g id="ek0ugr8" class="mNum">
                  <text y="961" text-anchor="middle" font-size="0px" />
               </g>
               <g id="fs7d0dy" class="staff">
                  <path d="M0 1269 L2904 1269" stroke-width="13" />
                  <path d="M0 1449 L2904 1449" stroke-width="13" />
                  <path d="M0 1629 L2904 1629" stroke-width="13" />
                  <path d="M0 1809 L2904 1809" stroke-width="13" />
                  <path d="M0 1989 L2904 1989" stroke-width="13" />
                  <g id="z1sibwlb" class="clef">
                     <use xlink:href="#E050-s8qob3q" transform="translate(117, 1809) scale(0.72, 0.72)" />
                  </g>
                  <g id="awbk7yy" class="keySig">
                     <g id="bs1wd04" class="keyAccid">
                        <use xlink:href="#E262-s8qob3q" transform="translate(798, 1269) scale(0.72, 0.72)" />
                     </g>
                     <g id="cgzbma" class="keyAccid">
                        <use xlink:href="#E262-s8qob3q" transform="translate(976, 1539) scale(0.72, 0.72)" />
                     </g>
                     <g id="d1177nqr" class="keyAccid">
                        <use xlink:href="#E262-s8qob3q" transform="translate(1154, 1179) scale(0.72, 0.72)" />
                     </g>
                     <g id="e11hz4fb" class="keyAccid">
                        <use xlink:href="#E262-s8qob3q" transform="translate(1332, 1449) scale(0.72, 0.72)" />
                     </g>
                  </g>
                  <g id="fn2ojuv" class="meterSig">
                     <use xlink:href="#E083-s8qob3q" transform="translate(1645, 1449) scale(0.72, 0.72)" />
                     <use xlink:href="#E084-s8qob3q" transform="translate(1639, 1809) scale(0.72, 0.72)" />
                  </g>
                  <g id="g1gzqysi" class="layer">
                     <g id="h143jsyl" class="rest">
                        <use xlink:href="#E4E5-s8qob3q" transform="translate(2201, 1629) scale(0.72, 0.72)" />
                     </g>
                  </g>
               </g>
               <g id="is9c1a7" class="staff">
                  <path d="M0 3069 L2904 3069" stroke-width="13" />
                  <path d="M0 3249 L2904 3249" stroke-width="13" />
                  <path d="M0 3429 L2904 3429" stroke-width="13" />
                  <path d="M0 3609 L2904 3609" stroke-width="13" />
                  <path d="M0 3789 L2904 3789" stroke-width="13" />
                  <g id="gr5qaou" class="clef">
                     <use xlink:href="#E050-s8qob3q" transform="translate(117, 3609) scale(0.72, 0.72)" />
                  </g>
                  <g id="h153jhu3" class="keySig">
                     <g id="iv9qyr4" class="keyAccid">
                        <use xlink:href="#E262-s8qob3q" transform="translate(798, 3069) scale(0.72, 0.72)" />
                     </g>
                     <g id="j1vseyh0" class="keyAccid">
                        <use xlink:href="#E262-s8qob3q" transform="translate(976, 3339) scale(0.72, 0.72)" />
                     </g>
                  </g>
                  <g id="kue1dwl" class="meterSig">
                     <use xlink:href="#E083-s8qob3q" transform="translate(1645, 3249) scale(0.72, 0.72)" />
                     <use xlink:href="#E084-s8qob3q" transform="translate(1639, 3609) scale(0.72, 0.72)" />
                  </g>
                  <g id="j118fvks" class="layer">
                     <g id="kv2iwde" class="note">
                        <g class="notehead">
                           <use xlink:href="#E0A4-s8qob3q" transform="translate(2201, 3519) scale(0.72, 0.72)" />
                        </g>
                        <g id="d1c228q3" class="stem">
                           <path d="M2418 3491 L2418 2889" stroke-width="18" />
                        </g>
                     </g>
                  </g>
               </g>
               <g id="l19akl7h" class="staff">
                  <path d="M0 4869 L2904 4869" stroke-width="13" />
                  <path d="M0 5049 L2904 5049" stroke-width="13" />
                  <path d="M0 5229 L2904 5229" stroke-width="13" />
                  <path d="M0 5409 L2904 5409" stroke-width="13" />
                  <path d="M0 5589 L2904 5589" stroke-width="13" />
                  <g id="l1s8juug" class="clef">
                     <use xlink:href="#E062-s8qob3q" transform="translate(117, 5049) scale(0.72, 0.72)" />
                  </g>
                  <g id="m17bjmqz" class="keySig">
                     <g id="n123g9zl" class="keyAccid">
                        <use xlink:href="#E262-s8qob3q" transform="translate(798, 5049) scale(0.72, 0.72)" />
                     </g>
                     <g id="oggu024" class="keyAccid">
                        <use xlink:href="#E262-s8qob3q" transform="translate(976, 5319) scale(0.72, 0.72)" />
                     </g>
                  </g>
                  <g id="pfrnl6f" class="meterSig">
                     <use xlink:href="#E083-s8qob3q" transform="translate(1645, 5049) scale(0.72, 0.72)" />
                     <use xlink:href="#E084-s8qob3q" transform="translate(1639, 5409) scale(0.72, 0.72)" />
                  </g>
                  <g id="m1513t1j" class="layer">
                     <g id="n10spwxk" class="rest">
                        <use xlink:href="#E4E5-s8qob3q" transform="translate(2201, 5229) scale(0.72, 0.72)" />
                     </g>
                  </g>
               </g>
               <g id="o1q5be2r" class="staff">
                  <path d="M0 6669 L2904 6669" stroke-width="13" />
                  <path d="M0 6849 L2904 6849" stroke-width="13" />
                  <path d="M0 7029 L2904 7029" stroke-width="13" />
                  <path d="M0 7209 L2904 7209" stroke-width="13" />
                  <path d="M0 7389 L2904 7389" stroke-width="13" />
                  <g id="q50bnnd" class="clef">
                     <use xlink:href="#E062-s8qob3q" transform="translate(117, 6849) scale(0.72, 0.72)" />
                  </g>
                  <g id="rodp9xe" class="keySig">
                     <g id="s1cm6v5w" class="keyAccid">
                        <use xlink:href="#E262-s8qob3q" transform="translate(798, 6849) scale(0.72, 0.72)" />
                     </g>
                     <g id="txsaauv" class="keyAccid">
                        <use xlink:href="#E262-s8qob3q" transform="translate(976, 7119) scale(0.72, 0.72)" />
                     </g>
                  </g>
                  <g id="uwiwhcv" class="meterSig">
                     <use xlink:href="#E083-s8qob3q" transform="translate(1645, 6849) scale(0.72, 0.72)" />
                     <use xlink:href="#E084-s8qob3q" transform="translate(1639, 7209) scale(0.72, 0.72)" />
                  </g>
                  <g id="p1nr6nz0" class="layer">
                     <g id="qx8z6be" class="rest">
                        <use xlink:href="#E4E5-s8qob3q" transform="translate(2201, 7029) scale(0.72, 0.72)" />
                     </g>
                  </g>
               </g>
               <g id="d1tn2j6b" class="barLine">
                  <path d="M2891 1269 L2891 1989" stroke-width="27" />
                  <path d="M2891 3069 L2891 3789" stroke-width="27" />
                  <path d="M2891 4869 L2891 5589" stroke-width="27" />
                  <path d="M2891 3789 L2891 4869" stroke-width="27" />
                  <path d="M2891 6669 L2891 7389" stroke-width="27" />
                  <path d="M2891 5589 L2891 6669" stroke-width="27" />
               </g>
            </g>
            <g id="rr38e0v" class="measure">
               <g id="a1pntgjh" class="staff">
                  <path d="M2904 1269 L5377 1269" stroke-width="13" />
                  <path d="M2904 1449 L5377 1449" stroke-width="13" />
                  <path d="M2904 1629 L5377 1629" stroke-width="13" />
                  <path d="M2904 1809 L5377 1809" stroke-width="13" />
                  <path d="M2904 1989 L5377 1989" stroke-width="13" />
                  <g id="b18819nw" class="layer">
                     <g id="c1ng1p8e" class="mRest">
                        <use xlink:href="#E4E3-s8qob3q" transform="translate(4019, 1449) scale(0.72, 0.72)" />
                     </g>
                  </g>
               </g>
               <g id="d1c92ag6" class="staff">
                  <path d="M2904 3069 L5377 3069" stroke-width="13" />
                  <path d="M2904 3249 L5377 3249" stroke-width="13" />
                  <path d="M2904 3429 L5377 3429" stroke-width="13" />
                  <path d="M2904 3609 L5377 3609" stroke-width="13" />
                  <path d="M2904 3789 L5377 3789" stroke-width="13" />
                  <g id="e12qvy4j" class="layer">
                     <g id="f1srh9on" class="chord">
                        <g id="e1pp7zdk" class="stem">
                           <path d="M3301 3671 L3301 2709" stroke-width="18" />
                        </g>
                        <g id="gz0tdd1" class="note">
                           <g class="notehead">
                              <use xlink:href="#E0A4-s8qob3q" transform="translate(3084, 3699) scale(0.72, 0.72)" />
                           </g>
                           <g id="hzfrn9z" class="accid" />
                        </g>
                        <g id="i1nros7e" class="note">
                           <g class="notehead">
                              <use xlink:href="#E0A4-s8qob3q" transform="translate(3084, 3519) scale(0.72, 0.72)" />
                           </g>
                        </g>
                        <g id="jn3ou3a" class="note">
                           <g class="notehead">
                              <use xlink:href="#E0A4-s8qob3q" transform="translate(3084, 3249) scale(0.72, 0.72)" />
                           </g>
                        </g>
                     </g>
                     <g id="k1qqxqf8" class="beam">
                        <polygon points="3774,3969 4242,4014 4242,3924 3774,3879" />
                        <g id="l1nkacyn" class="chord">
                           <g id="f1hbd7dy" class="stem">
                              <path d="M3783 3097 L3783 3951" stroke-width="18" />
                           </g>
                           <g id="mfyyj3o" class="note">
                              <g class="notehead">
                                 <use xlink:href="#E0A4-s8qob3q" transform="translate(3774, 3249) scale(0.72, 0.72)" />
                              </g>
                           </g>
                           <g id="ngo7oqr" class="note">
                              <g class="notehead">
                                 <use xlink:href="#E0A4-s8qob3q" transform="translate(3774, 3069) scale(0.72, 0.72)" />
                              </g>
                              <g id="orim4um" class="accid" />
                           </g>
                        </g>
                        <g id="pvf09yo" class="chord">
                           <g id="g1uaonh" class="stem">
                              <path d="M4233 3187 L4233 3996" stroke-width="18" />
                           </g>
                           <g id="q17lsuyc" class="note">
                              <g class="notehead">
                                 <use xlink:href="#E0A4-s8qob3q" transform="translate(4224, 3339) scale(0.72, 0.72)" />
                              </g>
                              <g id="r6dub99" class="accid" />
                           </g>
                           <g id="s1kfn4nj" class="note">
                              <g class="notehead">
                                 <use xlink:href="#E0A4-s8qob3q" transform="translate(4224, 3159) scale(0.72, 0.72)" />
                              </g>
                           </g>
                        </g>
                     </g>
                     <g id="tjnny5v" class="note">
                        <g class="notehead">
                           <use xlink:href="#E0A4-s8qob3q" transform="translate(4674, 3249) scale(0.72, 0.72)" />
                        </g>
                        <g id="hdqt43z" class="stem">
                           <path d="M4683 3277 L4683 3879" stroke-width="18" />
                        </g>
                     </g>
                  </g>
               </g>
               <g id="ua3zmxw" class="staff">
                  <path d="M2904 4869 L5377 4869" stroke-width="13" />
                  <path d="M2904 5049 L5377 5049" stroke-width="13" />
                  <path d="M2904 5229 L5377 5229" stroke-width="13" />
                  <path d="M2904 5409 L5377 5409" stroke-width="13" />
                  <path d="M2904 5589 L5377 5589" stroke-width="13" />
                  <g class="ledgerLines above">
                     <path d="M3726 4689 L4048 4689" stroke-width="22" />
                     <path d="M4626 4689 L4948 4689" stroke-width="22" />
                  </g>
                  <g class="ledgerLines below">
                     <path d="M3036 5769 L3358 5769" stroke-width="22" />
                  </g>
                  <g id="v3uwt1w" class="layer">
                     <g id="wt3rdin" class="chord">
                        <g id="i7lmy6t" class="stem">
                           <path d="M3301 5831 L3301 4629" stroke-width="18" />
                        </g>
                        <g id="x1y7uers" class="note">
                           <g class="notehead">
                              <use xlink:href="#E0A4-s8qob3q" transform="translate(3084, 5859) scale(0.72, 0.72)" />
                           </g>
                        </g>
                        <g id="yvjha50" class="note">
                           <g class="notehead">
                              <use xlink:href="#E0A4-s8qob3q" transform="translate(3084, 5229) scale(0.72, 0.72)" />
                           </g>
                        </g>
                     </g>
                     <g id="zbs0co4" class="chord">
                        <g id="j1p8lnjq" class="stem">
                           <path d="M3783 4627 L3783 5829" stroke-width="18" />
                        </g>
                        <g id="ayrtj7i" class="note">
                           <g class="notehead">
                              <use xlink:href="#E0A4-s8qob3q" transform="translate(3774, 5229) scale(0.72, 0.72)" />
                           </g>
                        </g>
                        <g id="b17f3ws2" class="note">
                           <g class="notehead">
                              <use xlink:href="#E0A4-s8qob3q" transform="translate(3774, 4599) scale(0.72, 0.72)" />
                           </g>
                        </g>
                     </g>
                     <g id="c1m8e9rt" class="chord">
                        <g id="kab3hsp" class="stem">
                           <path d="M4683 4627 L4683 5829" stroke-width="18" />
                        </g>
                        <g id="d1kr2g6q" class="note">
                           <g class="notehead">
                              <use xlink:href="#E0A4-s8qob3q" transform="translate(4674, 5229) scale(0.72, 0.72)" />
                           </g>
                        </g>
                        <g id="e17jas98" class="note">
                           <g class="notehead">
                              <use xlink:href="#E0A4-s8qob3q" transform="translate(4674, 4599) scale(0.72, 0.72)" />
                           </g>
                        </g>
                     </g>
                  </g>
               </g>
               <g id="f1omxjs6" class="staff">
                  <path d="M2904 6669 L5377 6669" stroke-width="13" />
                  <path d="M2904 6849 L5377 6849" stroke-width="13" />
                  <path d="M2904 7029 L5377 7029" stroke-width="13" />
                  <path d="M2904 7209 L5377 7209" stroke-width="13" />
                  <path d="M2904 7389 L5377 7389" stroke-width="13" />
                  <g id="g5qjk93" class="layer">
                     <g id="hwczrw3" class="mRest">
                        <use xlink:href="#E4E3-s8qob3q" transform="translate(4019, 6849) scale(0.72, 0.72)" />
                     </g>
                  </g>
               </g>
               <g id="z4hakph" class="barLine">
                  <path d="M5364 1269 L5364 1989" stroke-width="27" />
                  <path d="M5364 3069 L5364 3789" stroke-width="27" />
                  <path d="M5364 4869 L5364 5589" stroke-width="27" />
                  <path d="M5364 3789 L5364 4869" stroke-width="27" />
                  <path d="M5364 6669 L5364 7389" stroke-width="27" />
                  <path d="M5364 5589 L5364 6669" stroke-width="27" />
               </g>
            </g>
            <g id="ij9zxyn" class="measure">
               <g id="r1st9dcv" class="staff">
                  <path d="M5377 1269 L7850 1269" stroke-width="13" />
                  <path d="M5377 1449 L7850 1449" stroke-width="13" />
                  <path d="M5377 1629 L7850 1629" stroke-width="13" />
                  <path d="M5377 1809 L7850 1809" stroke-width="13" />
                  <path d="M5377 1989 L7850 1989" stroke-width="13" />
                  <g id="s1xo6izk" class="layer">
                     <g id="t1qokmu7" class="mRest">
                        <use xlink:href="#E4E3-s8qob3q" transform="translate(6492, 1449) scale(0.72, 0.72)" />
                     </g>
                  </g>
               </g>
               <g id="u14l6wrw" class="staff">
                  <path d="M5377 3069 L7850 3069" stroke-width="13" />
                  <path d="M5377 3249 L7850 3249" stroke-width="13" />
                  <path d="M5377 3429 L7850 3429" stroke-width="13" />
                  <path d="M5377 3609 L7850 3609" stroke-width="13" />
                  <path d="M5377 3789 L7850 3789" stroke-width="13" />
                  <g class="ledgerLines above">
                     <path d="M5509 2889 L5831 2889" stroke-width="22" />
                  </g>
                  <g id="v1ku5uyc" class="layer">
                     <g id="wi6o4i9" class="chord">
                        <g id="l5lj24z" class="stem">
                           <path d="M5774 3131 L5774 2439" stroke-width="18" />
                        </g>
                        <g id="xygb1fq" class="note">
                           <g class="notehead">
                              <use xlink:href="#E0A4-s8qob3q" transform="translate(5557, 3159) scale(0.72, 0.72)" />
                           </g>
                        </g>
                        <g id="y3qmsf4" class="note">
                           <g class="notehead">
                              <use xlink:href="#E0A4-s8qob3q" transform="translate(5557, 2889) scale(0.72, 0.72)" />
                           </g>
                        </g>
                     </g>
                     <g id="z2pspf2" class="beam">
                        <polygon points="6455,2574 6923,2619 6923,2709 6455,2664" />
                        <g id="adl7s48" class="note">
                           <g class="notehead">
                              <use xlink:href="#E0A4-s8qob3q" transform="translate(6247, 3069) scale(0.72, 0.72)" />
                           </g>
                           <g id="mtd8pl3" class="stem">
                              <path d="M6464 3041 L6464 2592" stroke-width="18" />
                           </g>
                           <g id="bd6e4bf" class="accid" />
                        </g>
                        <g id="c1hkxzcx" class="note">
                           <g class="notehead">
                              <use xlink:href="#E0A4-s8qob3q" transform="translate(6697, 3159) scale(0.72, 0.72)" />
                           </g>
                           <g id="n1ji8twk" class="stem">
                              <path d="M6914 3131 L6914 2637" stroke-width="18" />
                           </g>
                        </g>
                     </g>
                     <g id="dmvurip" class="note">
                        <g class="notehead">
                           <use xlink:href="#E0A4-s8qob3q" transform="translate(7147, 3249) scale(0.72, 0.72)" />
                        </g>
                        <g id="ogsh3tf" class="stem">
                           <path d="M7364 3221 L7364 2709" stroke-width="18" />
                        </g>
                     </g>
                  </g>
                  <g id="etjsw9" class="layer">
                     <g id="fnnk6ok" class="note">
                        <g class="notehead">
                           <use xlink:href="#E0A4-s8qob3q" transform="translate(5557, 3519) scale(0.72, 0.72)" />
                        </g>
                        <g id="p1ux4r6i" class="stem">
                           <path d="M5566 3547 L5566 4089" stroke-width="18" />
                        </g>
                     </g>
                     <g id="g1pc3qjo" class="note">
                        <g class="notehead">
                           <use xlink:href="#E0A4-s8qob3q" transform="translate(6247, 3339) scale(0.72, 0.72)" />
                        </g>
                        <g id="q1xcrde0" class="stem">
                           <path d="M6256 3367 L6256 3969" stroke-width="18" />
                        </g>
                        <g id="h53xpfl" class="accid" />
                     </g>
                     <g id="ns357g7" class="note">
                        <g class="notehead">
                           <use xlink:href="#E0A4-s8qob3q" transform="translate(7147, 3249) scale(0.72, 0.72)" />
                        </g>
                        <g id="r174vau4" class="stem">
                           <path d="M7156 3277 L7156 3879" stroke-width="18" />
                        </g>
                     </g>
                  </g>
               </g>
               <g id="jw3rdgo" class="staff">
                  <path d="M5377 4869 L7850 4869" stroke-width="13" />
                  <path d="M5377 5049 L7850 5049" stroke-width="13" />
                  <path d="M5377 5229 L7850 5229" stroke-width="13" />
                  <path d="M5377 5409 L7850 5409" stroke-width="13" />
                  <path d="M5377 5589 L7850 5589" stroke-width="13" />
                  <g class="ledgerLines above">
                     <path d="M5509 4689 L5831 4689" stroke-width="22" />
                  </g>
                  <g id="k78vme0" class="layer">
                     <g id="l11j1kbz" class="chord">
                        <g id="snjo8r" class="stem">
                           <path d="M5566 4717 L5566 5889" stroke-width="18" />
                        </g>
                        <g id="m1i1xemx" class="note">
                           <g class="notehead">
                              <use xlink:href="#E0A4-s8qob3q" transform="translate(5557, 5319) scale(0.72, 0.72)" />
                           </g>
                           <g id="n1nqgf9u" class="accid" />
                        </g>
                        <g id="opi3a9x" class="note">
                           <g class="notehead">
                              <use xlink:href="#E0A4-s8qob3q" transform="translate(5557, 4689) scale(0.72, 0.72)" />
                           </g>
                           <g id="pa3ijh6" class="accid" />
                        </g>
                     </g>
                     <g id="q17tiogm" class="chord">
                        <g id="t1p94yyp" class="stem">
                           <path d="M6256 4897 L6256 6009" stroke-width="18" />
                        </g>
                        <g id="rht0a1j" class="note">
                           <g class="notehead">
                              <use xlink:href="#E0A4-s8qob3q" transform="translate(6247, 5499) scale(0.72, 0.72)" />
                           </g>
                        </g>
                        <g id="s1v2w13h" class="note">
                           <g class="notehead">
                              <use xlink:href="#E0A4-s8qob3q" transform="translate(6247, 4869) scale(0.72, 0.72)" />
                           </g>
                        </g>
                     </g>
                     <g id="ttutpmv" class="chord">
                        <g id="unojw30" class="stem">
                           <path d="M7156 4807 L7156 5949" stroke-width="18" />
                        </g>
                        <g id="u12yg6bh" class="note">
                           <g class="notehead">
                              <use xlink:href="#E0A4-s8qob3q" transform="translate(7147, 5409) scale(0.72, 0.72)" />
                           </g>
                        </g>
                        <g id="v1ng070v" class="note">
                           <g class="notehead">
                              <use xlink:href="#E0A4-s8qob3q" transform="translate(7147, 4779) scale(0.72, 0.72)" />
                           </g>
                        </g>
                     </g>
                  </g>
               </g>
               <g id="wbpiw2e" class="staff">
                  <path d="M5377 6669 L7850 6669" stroke-width="13" />
                  <path d="M5377 6849 L7850 6849" stroke-width="13" />
                  <path d="M5377 7029 L7850 7029" stroke-width="13" />
                  <path d="M5377 7209 L7850 7209" stroke-width="13" />
                  <path d="M5377 7389 L7850 7389" stroke-width="13" />
                  <g id="x59est7" class="layer">
                     <g id="y15i6rkc" class="mRest">
                        <use xlink:href="#E4E3-s8qob3q" transform="translate(6492, 6849) scale(0.72, 0.72)" />
                     </g>
                  </g>
               </g>
               <g id="zlcd0m6" class="tie">
                  <path d="M7418,3294 C7617,3401 7986,3401 8186,3294 C8001,3448 7602,3448 7418,3294" stroke-width="9" stroke-linecap="round" stroke-linejoin="round" />
               </g>
               <g id="q1l766ao" class="barLine">
                  <path d="M7837 1269 L7837 1989" stroke-width="27" />
                  <path d="M7837 3069 L7837 3789" stroke-width="27" />
                  <path d="M7837 4869 L7837 5589" stroke-width="27" />
                  <path d="M7837 3789 L7837 4869" stroke-width="27" />
                  <path d="M7837 6669 L7837 7389" stroke-width="27" />
                  <path d="M7837 5589 L7837 6669" stroke-width="27" />
               </g>
            </g>
            <g id="acdowdq" class="measure">
               <g id="j8s2ghv" class="staff">
                  <path d="M7850 1269 L10810 1269" stroke-width="13" />
                  <path d="M7850 1449 L10810 1449" stroke-width="13" />
                  <path d="M7850 1629 L10810 1629" stroke-width="13" />
                  <path d="M7850 1809 L10810 1809" stroke-width="13" />
                  <path d="M7850 1989 L10810 1989" stroke-width="13" />
                  <g id="kcblw95" class="layer">
                     <g id="l1d768cp" class="mRest">
                        <use xlink:href="#E4E3-s8qob3q" transform="translate(9208, 1449) scale(0.72, 0.72)" />
                     </g>
                  </g>
               </g>
               <g id="md55gy9" class="staff">
                  <path d="M7850 3069 L10810 3069" stroke-width="13" />
                  <path d="M7850 3249 L10810 3249" stroke-width="13" />
                  <path d="M7850 3429 L10810 3429" stroke-width="13" />
                  <path d="M7850 3609 L10810 3609" stroke-width="13" />
                  <path d="M7850 3789 L10810 3789" stroke-width="13" />
                  <g id="nbpsjsl" class="layer">
                     <g id="o1ttuvnf" class="beam">
                        <polygon points="8238,2664 8773,2709 8773,2799 8238,2754" />
                        <g id="p566hy3" class="note">
                           <g class="notehead">
                              <use xlink:href="#E0A4-s8qob3q" transform="translate(8030, 3159) scale(0.72, 0.72)" />
                           </g>
                           <g id="v1avc3e3" class="stem">
                              <path d="M8247 3131 L8247 2682" stroke-width="18" />
                           </g>
                        </g>
                        <g id="q1mpn5yw" class="note">
                           <g class="notehead">
                              <use xlink:href="#E0A4-s8qob3q" transform="translate(8547, 3249) scale(0.72, 0.72)" />
                           </g>
                           <g id="w1bk08mc" class="stem">
                              <path d="M8764 3221 L8764 2727" stroke-width="18" />
                           </g>
                        </g>
                     </g>
                     <g id="r18yagyx" class="beam">
                        <polygon points="9205,2529 9673,2484 9673,2574 9205,2619" />
                        <g id="sv1cwtt" class="note">
                           <g class="notehead">
                              <use xlink:href="#E0A4-s8qob3q" transform="translate(8997, 3159) scale(0.72, 0.72)" />
                           </g>
                           <g id="xbcrjv8" class="stem">
                              <path d="M9214 3131 L9214 2547" stroke-width="18" />
                           </g>
                        </g>
                        <g id="tru11tb" class="note">
                           <g class="notehead">
                              <use xlink:href="#E0A4-s8qob3q" transform="translate(9447, 2979) scale(0.72, 0.72)" />
                           </g>
                           <g id="y1bfixx8" class="stem">
                              <path d="M9664 2951 L9664 2502" stroke-width="18" />
                           </g>
                        </g>
                     </g>
                     <g id="uw4c8yb" class="beam">
                        <polygon points="10105,2574 10573,2619 10573,2709 10105,2664" />
                        <g id="vi2nswh" class="note">
                           <g class="notehead">
                              <use xlink:href="#E0A4-s8qob3q" transform="translate(9897, 3069) scale(0.72, 0.72)" />
                           </g>
                           <g id="z18prua6" class="stem">
                              <path d="M10114 3041 L10114 2592" stroke-width="18" />
                           </g>
                           <g id="wvpkq2l" class="accid" />
                        </g>
                        <g id="x5y7hye" class="note">
                           <g class="notehead">
                              <use xlink:href="#E0A4-s8qob3q" transform="translate(10347, 3159) scale(0.72, 0.72)" />
                           </g>
                           <g id="amzl2kj" class="stem">
                              <path d="M10564 3131 L10564 2637" stroke-width="18" />
                           </g>
                        </g>
                     </g>
                  </g>
                  <g id="yjg4ph8" class="layer">
                     <g id="nr4q7wk" class="note">
                        <g class="notehead">
                           <use xlink:href="#E0A4-s8qob3q" transform="translate(8231, 3249) scale(0.72, 0.72)" />
                        </g>
                        <g id="b1f2jb8u" class="stem">
                           <path d="M8240 3277 L8240 3879" stroke-width="18" />
                        </g>
                     </g>
                     <g id="a16zdcqf" class="note">
                        <g class="notehead">
                           <use xlink:href="#E0A3-s8qob3q" transform="translate(8997, 3339) scale(0.72, 0.72)" />
                        </g>
                        <g id="c1p8z3tl" class="stem">
                           <path d="M9006 3364 L9006 3969" stroke-width="18" />
                        </g>
                        <g id="bv5d93p" class="accid" />
                     </g>
                  </g>
               </g>
               <g id="c1yahye4" class="staff">
                  <path d="M7850 4869 L10810 4869" stroke-width="13" />
                  <path d="M7850 5049 L10810 5049" stroke-width="13" />
                  <path d="M7850 5229 L10810 5229" stroke-width="13" />
                  <path d="M7850 5409 L10810 5409" stroke-width="13" />
                  <path d="M7850 5589 L10810 5589" stroke-width="13" />
                  <g id="d12ak0b7" class="layer">
                     <g id="etntbdc" class="chord">
                        <g id="d1xx67lq" class="stem">
                           <path d="M8039 4807 L8039 5589" stroke-width="18" />
                        </g>
                        <g id="f1me39uk" class="note">
                           <g class="notehead">
                              <use xlink:href="#E0A4-s8qob3q" transform="translate(8030, 4959) scale(0.72, 0.72)" />
                           </g>
                        </g>
                        <g id="g1rzj4s0" class="note">
                           <g class="notehead">
                              <use xlink:href="#E0A4-s8qob3q" transform="translate(8030, 4779) scale(0.72, 0.72)" />
                           </g>
                        </g>
                     </g>
                     <g id="hkdi99d" class="chord">
                        <g id="e1u4wxb1" class="stem">
                           <path d="M9006 4897 L9006 5589" stroke-width="18" />
                        </g>
                        <g id="i1ca1xmr" class="note">
                           <g class="notehead">
                              <use xlink:href="#E0A4-s8qob3q" transform="translate(8789, 4959) scale(0.72, 0.72)" />
                           </g>
                        </g>
                        <g id="j1nhc28l" class="note">
                           <g class="notehead">
                              <use xlink:href="#E0A4-s8qob3q" transform="translate(8997, 4869) scale(0.72, 0.72)" />
                           </g>
                        </g>
                     </g>
                     <g id="kmkugky" class="chord">
                        <g id="f1aob81z" class="stem">
                           <path d="M9906 4897 L9906 6009" stroke-width="18" />
                        </g>
                        <g id="l1279v1u" class="note">
                           <g class="notehead">
                              <use xlink:href="#E0A4-s8qob3q" transform="translate(9897, 5499) scale(0.72, 0.72)" />
                           </g>
                        </g>
                        <g id="m17p21so" class="note">
                           <g class="notehead">
                              <use xlink:href="#E0A4-s8qob3q" transform="translate(9897, 4869) scale(0.72, 0.72)" />
                           </g>
                        </g>
                     </g>
                  </g>
               </g>
               <g id="nlzwwoa" class="staff">
                  <path d="M7850 6669 L10810 6669" stroke-width="13" />
                  <path d="M7850 6849 L10810 6849" stroke-width="13" />
                  <path d="M7850 7029 L10810 7029" stroke-width="13" />
                  <path d="M7850 7209 L10810 7209" stroke-width="13" />
                  <path d="M7850 7389 L10810 7389" stroke-width="13" />
                  <g id="oz3iecr" class="layer">
                     <g id="p14wkhum" class="mRest">
                        <use xlink:href="#E4E3-s8qob3q" transform="translate(9208, 6849) scale(0.72, 0.72)" />
                     </g>
                  </g>
               </g>
               <g id="i15cpf74" class="barLine">
                  <path d="M10797 1269 L10797 1989" stroke-width="27" />
                  <path d="M10797 3069 L10797 3789" stroke-width="27" />
                  <path d="M10797 4869 L10797 5589" stroke-width="27" />
                  <path d="M10797 3789 L10797 4869" stroke-width="27" />
                  <path d="M10797 6669 L10797 7389" stroke-width="27" />
                  <path d="M10797 5589 L10797 6669" stroke-width="27" />
               </g>
            </g>
            <g id="qif81xt" class="measure">
               <g id="zbi4gc6" class="staff">
                  <path d="M10810 1269 L13493 1269" stroke-width="13" />
                  <path d="M10810 1449 L13493 1449" stroke-width="13" />
                  <path d="M10810 1629 L13493 1629" stroke-width="13" />
                  <path d="M10810 1809 L13493 1809" stroke-width="13" />
                  <path d="M10810 1989 L13493 1989" stroke-width="13" />
                  <g id="a1uacrer" class="layer">
                     <g id="b1mcwkat" class="mRest">
                        <use xlink:href="#E4E3-s8qob3q" transform="translate(12030, 1449) scale(0.72, 0.72)" />
                     </g>
                  </g>
               </g>
               <g id="cm3kavo" class="staff">
                  <path d="M10810 3069 L13493 3069" stroke-width="13" />
                  <path d="M10810 3249 L13493 3249" stroke-width="13" />
                  <path d="M10810 3429 L13493 3429" stroke-width="13" />
                  <path d="M10810 3609 L13493 3609" stroke-width="13" />
                  <path d="M10810 3789 L13493 3789" stroke-width="13" />
                  <g class="ledgerLines above">
                     <path d="M12982 2889 L13304 2889" stroke-width="22" />
                  </g>
                  <g id="d17h1q8d" class="layer">
                     <g id="e107cyl8" class="chord">
                        <g id="g1or3mod" class="stem">
                           <path d="M11207 3221 L11207 2589" stroke-width="18" />
                        </g>
                        <g id="f1ponl1h" class="note">
                           <g class="notehead">
                              <use xlink:href="#E0A4-s8qob3q" transform="translate(10990, 3249) scale(0.72, 0.72)" />
                           </g>
                        </g>
                        <g id="gm3dhyq" class="note">
                           <g class="notehead">
                              <use xlink:href="#E0A4-s8qob3q" transform="translate(10990, 3069) scale(0.72, 0.72)" />
                           </g>
                           <g id="h1r86dkl" class="accid" />
                        </g>
                     </g>
                     <g id="iwb7ymx" class="beam">
                        <polygon points="11888,2709 12356,2664 12356,2754 11888,2799" />
                        <g id="j1fv2i5b" class="note">
                           <g class="notehead">
                              <use xlink:href="#E0A4-s8qob3q" transform="translate(11680, 3249) scale(0.72, 0.72)" />
                           </g>
                           <g id="h16x57ow" class="stem">
                              <path d="M11897 3221 L11897 2727" stroke-width="18" />
                           </g>
                        </g>
                        <g id="k8t1xrj" class="note">
                           <g class="notehead">
                              <use xlink:href="#E0A4-s8qob3q" transform="translate(12130, 3159) scale(0.72, 0.72)" />
                           </g>
                           <g id="ikxf6sv" class="stem">
                              <path d="M12347 3131 L12347 2682" stroke-width="18" />
                           </g>
                        </g>
                     </g>
                     <g id="li9n4fw" class="beam">
                        <polygon points="12788,2439 13256,2394 13256,2484 12788,2529" />
                        <g id="m5rcfga" class="note">
                           <g class="notehead">
                              <use xlink:href="#E0A4-s8qob3q" transform="translate(12580, 3069) scale(0.72, 0.72)" />
                           </g>
                           <g id="jfe7yi8" class="stem">
                              <path d="M12797 3041 L12797 2457" stroke-width="18" />
                           </g>
                           <g id="n5qcpcj" class="accid" />
                        </g>
                        <g id="o14j6x76" class="note">
                           <g class="notehead">
                              <use xlink:href="#E0A4-s8qob3q" transform="translate(13030, 2889) scale(0.72, 0.72)" />
                           </g>
                           <g id="k1udnnhr" class="stem">
                              <path d="M13247 2861 L13247 2412" stroke-width="18" />
                           </g>
                        </g>
                     </g>
                  </g>
                  <g id="p1bv4060" class="layer">
                     <g id="qb69h77" class="note">
                        <g class="notehead">
                           <use xlink:href="#E0A4-s8qob3q" transform="translate(10990, 3519) scale(0.72, 0.72)" />
                        </g>
                        <g id="l1hdg2qp" class="stem">
                           <path d="M10999 3547 L10999 4089" stroke-width="18" />
                        </g>
                     </g>
                     <g id="r3n9pdw" class="note">
                        <g class="notehead">
                           <use xlink:href="#E0A4-s8qob3q" transform="translate(11680, 3519) scale(0.72, 0.72)" />
                        </g>
                        <g id="muz6xin" class="stem">
                           <path d="M11689 3547 L11689 4089" stroke-width="18" />
                        </g>
                     </g>
                     <g id="s92nirw" class="note">
                        <g class="notehead">
                           <use xlink:href="#E0A4-s8qob3q" transform="translate(12580, 3249) scale(0.72, 0.72)" />
                        </g>
                        <g id="n1mwb7gn" class="stem">
                           <path d="M12589 3277 L12589 3879" stroke-width="18" />
                        </g>
                     </g>
                  </g>
               </g>
               <g id="ti2lv6j" class="staff">
                  <path d="M10810 4869 L13493 4869" stroke-width="13" />
                  <path d="M10810 5049 L13493 5049" stroke-width="13" />
                  <path d="M10810 5229 L13493 5229" stroke-width="13" />
                  <path d="M10810 5409 L13493 5409" stroke-width="13" />
                  <path d="M10810 5589 L13493 5589" stroke-width="13" />
                  <g class="ledgerLines above">
                     <path d="M10942 4689 L11264 4689" stroke-width="22" />
                     <path d="M12532 4689 L12854 4689" stroke-width="22" />
                  </g>
                  <g id="u12o6jyp" class="layer">
                     <g id="v14ymh8v" class="chord">
                        <g id="o1pz3vop" class="stem">
                           <path d="M10999 4627 L10999 5679" stroke-width="18" />
                        </g>
                        <g id="w1y5a0p4" class="note">
                           <g class="notehead">
                              <use xlink:href="#E0A4-s8qob3q" transform="translate(10990, 5049) scale(0.72, 0.72)" />
                           </g>
                           <g id="xxjhwmq" class="accid" />
                        </g>
                        <g id="y1gec2bz" class="note">
                           <g class="notehead">
                              <use xlink:href="#E0A4-s8qob3q" transform="translate(10990, 4599) scale(0.72, 0.72)" />
                           </g>
                        </g>
                     </g>
                     <g id="z1i8fwo1" class="chord">
                        <g id="p15kpnkw" class="stem">
                           <path d="M11689 5077 L11689 5829" stroke-width="18" />
                        </g>
                        <g id="abicxqb" class="note">
                           <g class="notehead">
                              <use xlink:href="#E0A4-s8qob3q" transform="translate(11680, 5229) scale(0.72, 0.72)" />
                           </g>
                        </g>
                        <g id="b1u9bt19" class="note">
                           <g class="notehead">
                              <use xlink:href="#E0A4-s8qob3q" transform="translate(11680, 5049) scale(0.72, 0.72)" />
                           </g>
                           <g id="c1cnnw0n" class="accid" />
                        </g>
                     </g>
                     <g id="d13uqxvy" class="chord">
                        <g id="q7eiejx" class="stem">
                           <path d="M12589 4627 L12589 5679" stroke-width="18" />
                        </g>
                        <g id="e1945yi4" class="note">
                           <g class="notehead">
                              <use xlink:href="#E0A4-s8qob3q" transform="translate(12580, 5049) scale(0.72, 0.72)" />
                           </g>
                           <g id="f5sk0me" class="accid" />
                        </g>
                        <g id="g1udzz7x" class="note">
                           <g class="notehead">
                              <use xlink:href="#E0A4-s8qob3q" transform="translate(12580, 4599) scale(0.72, 0.72)" />
                           </g>
                        </g>
                     </g>
                  </g>
               </g>
               <g id="h1uyb6lj" class="staff">
                  <path d="M10810 6669 L13493 6669" stroke-width="13" />
                  <path d="M10810 6849 L13493 6849" stroke-width="13" />
                  <path d="M10810 7029 L13493 7029" stroke-width="13" />
                  <path d="M10810 7209 L13493 7209" stroke-width="13" />
                  <path d="M10810 7389 L13493 7389" stroke-width="13" />
                  <g id="itvxd23" class="layer">
                     <g id="jk75jhv" class="mRest">
                        <use xlink:href="#E4E3-s8qob3q" transform="translate(12030, 6849) scale(0.72, 0.72)" />
                     </g>
                  </g>
               </g>
               <g id="y1whtvnx" class="barLine">
                  <path d="M13480 1269 L13480 1989" stroke-width="27" />
                  <path d="M13480 3069 L13480 3789" stroke-width="27" />
                  <path d="M13480 4869 L13480 5589" stroke-width="27" />
                  <path d="M13480 3789 L13480 4869" stroke-width="27" />
                  <path d="M13480 6669 L13480 7389" stroke-width="27" />
                  <path d="M13480 5589 L13480 6669" stroke-width="27" />
               </g>
            </g>
            <g id="r18k2k5s" class="systemMilestoneEnd u1xkwl0n" />
         </g>
         <g id="s1a03bjm" class="pageMilestoneEnd u1x1zd52" />
         <g id="t6eo3ls" class="pageMilestoneEnd t1sep9bd" />
         <g id="a9ai3xq" class="pgHead autogenerated">
            <text font-size="0px">
               <tspan id="b1xi18nq" class="rend" x="10000" y="417" text-anchor="middle">
                  <title class="labelAttr">title</title>
                  <tspan id="c19zv3nt" class="rend">
                     <tspan id="d5brjna" class="text">
                        <tspan font-size="607px">Bar line with @bar.method and @bar.thru</tspan>
                     </tspan>
                  </tspan>
               </tspan>
            </text>
         </g>
         <g id="u1ffp76y" class="pgFoot autogenerated">
            <g id="v1kk7eqs" class="fig">
               <g class="svg" transform="translate(7750, 28099) scale(10.000000, 10.000000)">
                  <g>
                     <path fill="#000000" d="M 17.11278,49.26451 V 10.367554 h 12.696511 c 3.288815,7.336676 6.71267,14.610456 10.127281,21.888976 3.419998,-7.484684 6.255515,-14.204887 9.58887,-21.909915 2.436207,0.103726 4.316952,0.08453 6.484294,-0.05808 V 49.264423 H 50.274275 C 50.145222,38.35639 50.016136,27.448368 49.887066,16.540329 45.003488,27.315459 39.967448,38.433564 35.083854,49.208695 34.678996,49.343717 34.426583,49.135619 34.021726,49.270644 29.46588,39.330716 24.910049,29.390805 20.354201,19.450876 20.224341,29.388756 20.09461,39.326619 19.964815,49.264497 H 17.11278 Z M 36.754144,39.324695 C 32.721221,30.512695 28.6883,21.700679 24.655394,12.888662 22.530527,12.750737 22.656775,12.71031 20.714356,12.813974 v 0.966497 c 4.612938,9.99784 9.609439,20.748709 13.87298,30.081745 0.722248,-1.512523 1.444528,-3.025014 2.166808,-4.537521 z m 25.738417,9.939815 c 0,-12.965651 0,-25.931305 0,-38.896956 10.084388,0 20.168791,0 30.253178,0 0,0.960416 0,1.920849 0,2.881265 -6.482825,0 -12.965652,0 -19.448478,0 0,4.802097 0,9.604178 0,14.406277 5.52241,0 11.044819,0 16.567229,0 0,0.960415 0,1.920832 0,2.881248 -5.52241,0 -11.044819,0 -16.567229,0 0,5.282306 0,10.564611 0,15.846917 6.963035,0 13.926068,0 20.889103,0 0,0.960416 0,1.920832 0,2.881249 -10.564597,0 -21.129207,0 -31.693803,0 z m 4.321874,-2.160937 c 0,-11.765131 0,-23.530263 0,-35.295394 -0.720312,0 -1.440625,0 -2.160937,0 0,11.765131 0,23.530263 0,35.295394 0.720312,0 1.440625,0 2.160937,0 z m 32.41413,2.160937 c 0,-12.965651 0,-25.931305 0,-38.896956 2.401045,0 4.802095,0 7.203135,0 0,12.965651 0,25.931305 0,38.896956 -2.40104,0 -4.80209,0 -7.203135,0 z m 2.881265,-2.160937 c 0,-11.765131 0,-23.530263 0,-35.295394 -0.72031,0 -1.44064,0 -2.160953,0 0,11.765131 0,23.530263 0,35.295394 0.720313,0 1.440643,0 2.160953,0 z" />
                     <path fill="#000000" d="m 346.3,6.7 c -3.1,0.5 -4.9,4.4 -2.7,6.8 1.2,1.4 2.7,2.4 4.1,3.5 -2.4,5.3 -7.7,8.3 -11.9,12.1 -3.7,2.8 -7,6.2 -9.7,9.9 -2.2,-0.8 -0.91472,-7.718806 -0.62677,-9.5 0.28796,-1.781194 0.72677,-6.4 2.92677,-8.7 1.3,-1.9 3,-3.5 4.5,-5.2 1.2,-3.4 -3.2,-4.9 -5.8,-4.6 -7.3,-0.5 -14.6,2 -20,6.8 -5,4.6 -10,10.1 -11.5,17 -0.9,3.5 -0.2,7.5 2.8,9.9 2.5,2.8 7.4,2.9 9.8,-0.2 1.7,-2.3 3.2,-4.8 3.8,-7.6 -0.1,-2.6 -4.4,-2.3 -4.3,0.2 1.2,2.4 -0.9,4.7 -2.7,6.2 -1.7,0.9 -4.7,0.7 -4.8,-1.7 -1,-5.8 2.1,-11.3 5.2,-16.1 4,-5.8 9.8,-11.2 17.2,-11.8 1.6,0 8.1,-1.2 6.8,1.4 -2.8,2.8 -5.6,6.1 -6,10.3 -1.6,7.7 0.1,15.7 -2.3,23.2 -1.1,3.9 2,2.6 2.5,0.2 3.3,-7.4 8.9,-13.4 15.1,-18.5 4.2,-3.9 9.5,-7.1 11.9,-12.6 1.3,-3.6 1.2,-9 -2.7,-10.9 -0.50431,-0.1767056 -1.06965,-0.1654404 -1.6,-0.1 z m 66,14.5 c -2,0.8 -1.8,4.9 0.8,4.4 3.4,0.4 2.9,-6.2 -0.8,-4.4 z m 0.6,7.3 c -1.3,0.5 -7.6,0.5 -5.4,2.2 4,-0.3 0.7,4.5 0.6,6.7 -0.4,2.9 -2.4,5.9 -1.2,8.8 2.7,1.7 5.6,-0.8 6.8,-3.2 1.6,-1.4 -0.5,-3 -1.2,-0.9 -0.4,0.8 -2.4,3.5 -2.6,1.8 1.1,-5 2.7,-9.9 3.9,-14.9 l -0.1,-0.5 h -0.9 z m -65.1,0.2 c -6.5,1.6 -10.5,9.5 -8.2,15.7 2.1,3.4 7.4,2.9 10.1,0.4 2,-0.2 3.6,-5.3 1,-3.4 -1.4,2 -4,4.2 -6.5,2.8 -2.2,-1.9 -1.9,-5.7 1.7,-5.3 3.1,-0.9 6.9,-2.1 8.1,-5.5 0.9,-2.7 -1.6,-5.2 -4.3,-4.8 h -1.1 -0.7 z m 13.6,0 c -2.2,0 -8.5,1.8 -2.9,2.3 0.9,1.9 -1,4.9 -1.1,7.2 -0.5,2.9 -1.4,5.7 -1.7,8.7 3.7,0.7 3.8,-2.6 4.4,-5.3 0.9,-3.3 1.6,-7 4.1,-9.5 2.4,1.6 6.8,-0.7 3.7,-3.4 -2.9,-0.5 -4.8,2.4 -6.2,4.3 0,-1.2 2.4,-5 -0.2,-4.3 z m 15.8,0 c -6.4,1.3 -9.6,9.1 -7.7,14.9 1.9,4 7.7,3.9 11,1.7 4.1,-3 6,-8.9 4.4,-13.7 -1.3,-3 -4.8,-3.2 -7.6,-3 z m 17,0 c -2.3,0 -8.8,1.9 -3,2.4 0.4,2.5 -1,5.7 -1.4,8.4 -0.7,2.4 -1.8,7.5 2.1,7.2 3.8,-0.1 6.5,-3.5 8.5,-6.3 2,-3.2 4.5,-7 3.3,-10.9 -3.7,-3 -3.6,2.6 -3.1,5.1 -0.7,3.8 -2.7,7.9 -6.2,9.8 -3.6,0.6 -1,-4.3 -0.8,-6.1 0.6,-3.2 1.6,-6.3 1.9,-9.5 h -1.1 z m 30.6,0 c -6.3,1.2 -9.5,8.9 -7.8,14.7 1.5,4 7.2,4.2 10.5,2.4 4.6,-2.8 6.6,-9.3 4.8,-14.3 -1.4,-2.8 -4.8,-3 -7.5,-2.8 z m -75.4,1.7 c 2.1,1.5 0.2,4.7 -1.6,5.7 -1.1,0.4 -5.5,3.4 -4.6,0.7 0.8,-2.7 2.2,-6.2 5.3,-6.6 l 0.9,0.1 z m 30.8,0 c 2.6,1.5 1.3,5.2 0.8,7.6 -0.8,2.7 -1.9,5.9 -4.7,7.1 -5.1,0.8 -4,-5.8 -2.8,-8.8 1,-2.8 3,-6.8 6.7,-5.8 z m 47.1,-0.1 c 2.9,0.7 2,4.7 1.5,6.8 -0.7,3 -1.8,6.7 -5,8 -4.7,0.8 -4,-5.1 -3,-7.9 0.9,-3 2.7,-7.3 6.5,-6.8 z" />
                     <g>
                        <path d="m 116.56641,37.118164 q 0,-3.251953 2.92968,-6.298828 2.90039,-3.046875 5.99121,-3.046875 1.14258,0 1.81641,0.527344 0.67383,0.527343 0.67383,1.567382 0,2.109375 -2.47559,3.618165 -2.46093,1.49414 -5.18554,1.831054 l -0.83496,0.102539 q -0.19043,0.600586 -0.26368,0.966797 -0.0732,0.351563 -0.0732,0.893555 0,1.289062 0.83496,2.006836 0.84961,0.717773 2.00684,0.717773 1.09863,0 2.3291,-0.732422 0.70312,-0.424804 2.03613,-1.523437 l 0.38086,0.336914 q -0.65918,0.834961 -1.88965,1.713867 -2.18261,1.567383 -4.37988,1.567383 -1.55273,0 -2.72461,-1.098633 -1.17187,-1.098633 -1.17187,-3.149414 z m 3.12011,-2.358398 q 2.79786,-0.410157 4.55567,-1.962891 Q 126,31.229492 126,29.691406 q 0,-0.55664 -0.26367,-0.878906 -0.26367,-0.336914 -0.77637,-0.336914 -0.95215,0 -1.875,0.820312 -0.9082,0.805664 -1.64062,1.831055 -0.77637,1.201172 -1.23047,2.299805 -0.24903,0.585937 -0.52735,1.333008 z" />
                        <path d="m 129.47168,41 2.53418,-9.052734 q 0.32226,-1.142579 0.36621,-1.376954 0.0586,-0.249023 0.0586,-0.527343 0,-0.424805 -0.24902,-0.65918 -0.23437,-0.249023 -0.9375,-0.249023 -0.17578,0 -0.35156,0.0293 -0.16113,0.01465 -0.36621,0.04395 v -0.498047 q 0.95215,-0.146484 1.34765,-0.219727 0.41016,-0.07324 0.87891,-0.175781 l 2.62207,-0.571289 q 0.0879,0.05859 0.11719,0.131836 l -1.94824,6.298828 q 1.7871,-2.739258 2.98828,-4.072266 2.10937,-2.358398 3.77929,-2.358398 0.64453,0 1.11328,0.249023 0.89356,0.483399 0.89356,1.743165 0,0.351562 -0.0732,0.732421 -0.0732,0.38086 -0.19043,0.820313 l -1.91895,7.016601 q -0.0586,0.219727 -0.13183,0.541993 -0.0733,0.307617 -0.0733,0.439453 0,0.219726 0.10254,0.395508 0.10254,0.175781 0.33692,0.175781 0.38086,0 0.8789,-0.439453 0.49805,-0.454102 1.62598,-1.918946 l 0.4248,0.38086 q -1.20117,1.625976 -1.90429,2.285156 -1.20117,1.157227 -2.29981,1.157227 -0.49804,0 -0.96679,-0.322266 -0.45411,-0.336914 -0.45411,-1.201172 0,-0.249023 0.0293,-0.527344 0.0439,-0.27832 0.10254,-0.483398 l 1.8457,-7.119141 q 0.14649,-0.585937 0.19043,-0.952148 0.0586,-0.38086 0.0586,-0.541992 0,-0.351563 -0.17578,-0.600586 -0.16114,-0.263672 -0.58594,-0.263672 -1.09863,0 -2.76856,1.992187 -0.98144,1.186524 -1.99218,2.827149 -0.77637,1.274414 -1.23047,2.490234 Q 132.70898,37.821289 131.74219,41 Z" />
                        <path d="m 149.12988,33.5 q 0,0.908203 0.27832,1.450195 0.46875,0.893555 1.68457,0.893555 1.31836,0 2.34375,-1.669922 1.04004,-1.68457 1.04004,-3.706055 0,-0.966796 -0.4248,-1.508789 -0.42481,-0.55664 -1.27442,-0.55664 -1.64062,0 -2.65136,1.743164 -0.9961,1.743164 -0.9961,3.354492 z m 0.5127,13.066406 q 1.74316,0 2.88574,-0.834961 1.15723,-0.834961 1.15723,-1.992187 0,-0.878906 -0.60059,-1.479492 -0.32226,-0.322266 -1.04004,-0.688477 -0.60058,-0.292969 -2.03613,-0.834961 -1.4209,-0.556641 -1.64063,-0.556641 -0.38086,0 -1.47949,1.010743 -1.09863,1.02539 -1.09863,2.314453 0,1.948242 1.68457,2.680664 0.87891,0.380859 2.16797,0.380859 z m -5.47852,-2.680664 q 0,-1.098633 0.83496,-2.094726 0.84961,-0.981446 2.68067,-1.962891 -0.36621,-0.234375 -0.60059,-0.483398 -0.23437,-0.263672 -0.23437,-0.688477 0,-0.600586 0.83496,-1.376953 0.46875,-0.439453 1.52343,-1.157227 -0.9375,-0.351562 -1.61132,-0.996093 -0.82032,-0.864258 -0.82032,-2.241211 0,-2.211914 1.72852,-3.676758 1.72852,-1.464844 4.27734,-1.464844 1.33301,0 2.25586,0.424805 0.92285,0.410156 1.08399,0.688476 h 1.97754 v 1.171875 h -1.49414 q 0.0879,0.322266 0.13183,0.585938 0.0439,0.263672 0.0439,0.74707 0,2.373047 -1.84571,3.735352 -1.83105,1.362304 -3.95507,1.362304 -0.21973,0 -0.41016,-0.01465 -0.19043,-0.0293 -0.46875,-0.08789 -0.21973,0 -0.60059,0.424805 -0.3955,0.424805 -0.3955,0.761719 0,0.498047 3.22265,1.699218 3.20801,1.215821 3.20801,3.559571 0,1.757812 -1.61133,3.076172 -1.61133,1.333007 -4.86328,1.333007 -2.25586,0 -3.57422,-0.966796 -1.31836,-0.966797 -1.31836,-2.358399 z" />
                        <path d="m 165.03809,27.669922 q 0.13183,0 0.17578,0.08789 0.0586,0.07324 0.0586,0.175782 -0.0146,0.146484 -0.0293,0.219726 l -1.46484,5.668946 0.32227,-0.629883 q 1.05468,-2.06543 2.46093,-3.764649 1.4209,-1.713867 2.69532,-1.713867 0.68847,0 1.05468,0.454102 0.38086,0.454101 0.38086,1.040039 0,0.659179 -0.38086,1.098633 -0.36621,0.424804 -1.02539,0.424804 -0.4541,0 -0.68847,-0.175781 -0.23438,-0.175781 -0.36621,-0.410156 l -0.17579,-0.322266 q -0.0586,-0.08789 -0.14648,-0.131836 -0.0732,-0.05859 -0.19043,-0.05859 -0.57129,0 -1.65527,1.59668 -1.06934,1.59668 -1.91895,3.457031 -0.51269,1.12793 -1.14258,2.988282 Q 162.60645,38.84668 161.94727,41 h -2.25586 l 2.43164,-8.818359 q 0.20507,-0.761719 0.32226,-1.362305 0.13184,-0.600586 0.13184,-0.981445 0,-0.439454 -0.21973,-0.673829 -0.21972,-0.234375 -0.76172,-0.234375 -0.17578,0 -0.43945,0.0293 -0.26367,0.0293 -0.62988,0.07324 v -0.483399 l 0.58593,-0.117187 q 1.14258,-0.234375 2.49024,-0.498047 1.3623,-0.263672 1.43555,-0.263672 z" />
                        <path d="m 181.51758,30.423828 q 0,-1.054687 -0.4834,-1.552734 -0.4834,-0.498047 -1.17188,-0.498047 -2.38769,0 -4.43847,3.662109 -1.80176,3.222656 -1.80176,5.551758 0,1.171875 0.49805,1.713867 0.51269,0.527344 1.25976,0.527344 2.21192,0 4.2627,-3.55957 1.875,-3.237305 1.875,-5.844727 z m -1.83106,-2.709961 q 1.15723,0 1.78711,0.600586 0.33692,0.322266 0.52735,0.849609 l 0.0732,0.205079 0.32226,-1.113282 q 0.0586,-0.190429 0.10254,-0.249023 0.0439,-0.07324 0.20508,-0.08789 l 1.65527,-0.190429 q 0.13184,0 0.14649,0.05859 0.0293,0.04395 0,0.175782 -0.0586,0.190429 -0.0879,0.307617 -0.0293,0.102539 -0.0879,0.307617 l -1.34766,5.244141 q -0.43945,1.713867 -0.74707,2.958984 -0.54199,2.255859 -0.54199,2.578125 0,0.205078 0.10254,0.307617 0.11719,0.08789 0.27832,0.08789 0.13183,0 0.27832,-0.08789 0.16113,-0.08789 0.38086,-0.263672 l 0.24902,-0.205078 q 0.11719,-0.102539 0.26367,-0.234375 0.14649,-0.146484 0.35157,-0.351562 l 0.9082,-0.9375 0.35156,0.307617 q -1.52344,1.948242 -2.44629,2.651367 -0.92285,0.688477 -1.75781,0.688477 -0.54199,0 -0.84961,-0.38086 -0.29297,-0.380859 -0.29297,-0.952148 0,-0.527344 0.19043,-1.508789 0.20508,-0.996094 0.39551,-1.669922 -0.26367,0.439453 -0.89356,1.289062 -0.61523,0.834961 -1.52343,1.625977 -1.06934,0.952148 -2.05078,1.347656 -0.76172,0.263672 -1.46485,0.263672 -1.18652,0 -2.15332,-0.966797 -0.96679,-0.981445 -0.96679,-2.768555 0,-3.076171 2.7539,-6.416015 2.8418,-3.47168 5.88867,-3.47168 z" />
                        <path d="m 196.66406,27.772461 q 0.82031,0 1.25977,0.585937 0.43945,0.585938 0.43945,1.333008 0,1.977539 -3.91113,6.928711 -3.70606,4.702149 -4.43848,4.702149 -0.21972,0 -0.29297,-0.600586 -0.0439,-0.336914 -0.0439,-1.142578 0,-0.981446 -0.19043,-3.325196 -0.19043,-2.34375 -0.36621,-3.471679 -0.36621,-2.475586 -0.71778,-3.19336 -0.35156,-0.717773 -1.333,-0.717773 -0.16114,0 -0.38086,0.01465 -0.20508,0.01465 -0.4834,0.04395 v -0.380859 q 0.43945,-0.08789 1.8457,-0.395508 1.40625,-0.307617 1.49414,-0.336914 l 0.4834,-0.146484 q 0.20508,-0.05859 0.32227,0.234375 0.11718,0.27832 0.29296,1.054687 0.55665,2.548828 0.83497,5.024414 0.17578,1.538086 0.35156,4.555664 l 0.4834,-0.512695 q 1.50879,-1.59668 3.01757,-3.793945 1.50879,-2.197266 1.50879,-3.105469 0,-0.454101 -0.65918,-1.083984 -0.65918,-0.644532 -0.65918,-1.171875 0,-0.483399 0.32227,-0.791016 0.33691,-0.307617 0.82031,-0.307617 z" />
                        <path d="m 199.82812,37.118164 q 0,-3.251953 2.92969,-6.298828 2.90039,-3.046875 5.99121,-3.046875 1.14258,0 1.81641,0.527344 0.67383,0.527343 0.67383,1.567382 0,2.109375 -2.47559,3.618165 -2.46094,1.49414 -5.18555,1.831054 l -0.83496,0.102539 q -0.19043,0.600586 -0.26367,0.966797 -0.0732,0.351563 -0.0732,0.893555 0,1.289062 0.83496,2.006836 0.84961,0.717773 2.00684,0.717773 1.09863,0 2.3291,-0.732422 0.70312,-0.424804 2.03613,-1.523437 l 0.38086,0.336914 q -0.65918,0.834961 -1.88965,1.713867 -2.18262,1.567383 -4.37988,1.567383 -1.55274,0 -2.72461,-1.098633 -1.17188,-1.098633 -1.17188,-3.149414 z m 3.12012,-2.358398 q 2.79785,-0.410157 4.55567,-1.962891 1.75781,-1.567383 1.75781,-3.105469 0,-0.55664 -0.26367,-0.878906 -0.26368,-0.336914 -0.77637,-0.336914 -0.95215,0 -1.875,0.820312 -0.9082,0.805664 -1.64063,1.831055 -0.77636,1.201172 -1.23046,2.299805 -0.24903,0.585937 -0.52735,1.333008 z" />
                        <path d="m 215.23828,37.601562 q 0,0.893555 0.41016,1.567383 0.41015,0.65918 1.3916,0.65918 2.09473,0 4.02832,-3.369141 1.81641,-3.164062 1.81641,-5.991211 0,-0.893554 -0.29297,-1.479492 -0.29297,-0.585937 -1.18653,-0.585937 -2.22656,0 -4.30664,3.603515 -1.86035,3.222657 -1.86035,5.595703 z m 6.00586,-9.887695 q 1.15723,0 1.64063,0.556641 0.27832,0.322265 0.43945,1.098633 l 1.66992,-6.00586 q 0.0732,-0.249023 0.0879,-0.439453 0.0293,-0.205078 0.0293,-0.351562 0,-0.571289 -0.21973,-0.717774 -0.20508,-0.146484 -0.60058,-0.146484 -0.24903,0 -0.46875,0.01465 -0.20508,0.01465 -0.55665,0.04395 v -0.483399 q 1.65528,-0.219726 4.58497,-0.761719 l 0.13183,0.146485 -0.0293,0.161133 -2.8125,10.532226 -1.91894,6.972656 q -0.0586,0.234375 -0.10254,0.439453 -0.0293,0.19043 -0.0293,0.351563 0,0.395508 0.19043,0.512695 0.20508,0.117188 0.35157,0.117188 0.4248,0 1.20117,-0.747071 0.4541,-0.454101 1.24511,-1.40625 l 0.33692,0.322266 -0.20508,0.307617 q -0.54199,0.805664 -1.3916,1.640625 -1.50879,1.479492 -2.70996,1.479492 -0.39551,0 -0.71778,-0.175781 -0.60058,-0.351562 -0.60058,-1.259765 0,-0.307618 0.0879,-0.981446 0.0879,-0.673828 0.26367,-1.464843 -1.11328,1.699218 -2.44629,2.783203 -1.31836,1.083984 -2.88574,1.083984 -1.27441,0 -2.22656,-0.908203 -0.95215,-0.908203 -0.95215,-2.797852 0,-3.193359 2.92969,-6.5625 2.91504,-3.354492 5.68359,-3.354492 z" />
                        <path d="m 254.12988,29.530273 q 0,1.230469 -1.18652,3.251954 -0.65918,1.127929 -1.86035,2.739257 -1.23047,1.655274 -2.53418,3.266602 -2.06543,2.548828 -2.43164,2.548828 -0.16114,0 -0.20508,-0.131836 -0.044,-0.131836 -0.11719,-0.893555 l -0.86426,-9.125976 -6.0791,9.960937 q -0.0439,0.08789 -0.11719,0.117188 -0.0586,0.0293 -0.13183,0.0293 l -0.20508,-0.04395 -0.0293,-0.131836 -0.17578,-3.618164 q -0.0586,-1.21582 -0.17578,-2.504882 -0.10254,-1.303711 -0.20508,-2.25586 -0.30761,-2.651367 -0.65918,-3.251953 -0.33691,-0.600586 -1.25976,-0.600586 -0.17578,0 -0.35156,0.01465 -0.17579,0 -0.36622,0.0293 v -0.424804 q 0.60059,-0.102539 1.14258,-0.219727 0.55664,-0.117187 1.21582,-0.263672 l 1.37696,-0.351562 q 0.49804,0 1.01074,4.174805 0.27832,2.285156 0.49805,5.200195 l 5.75683,-9.09668 q 0.0586,-0.117187 0.14649,-0.19043 0.0879,-0.08789 0.20507,-0.08789 0.13184,0 0.17578,0.08789 0.0439,0.08789 0.0586,0.263672 l 0.98144,10.590821 q 0.10254,-0.131836 1.62598,-2.06543 1.52344,-1.948242 1.59668,-2.06543 1.09863,-1.582031 1.46484,-2.446289 0.23438,-0.55664 0.23438,-1.083984 0,-0.205078 -0.0586,-0.38086 -0.0586,-0.190429 -0.27833,-0.395507 L 251.87402,29.75 q -0.19043,-0.19043 -0.33691,-0.410156 -0.13184,-0.234375 -0.13184,-0.541992 0,-0.366211 0.24903,-0.747071 0.26367,-0.380859 0.9375,-0.380859 0.54199,0 1.04004,0.439453 0.49804,0.424805 0.49804,1.420898 z" />
                        <path d="m 261.17578,24.520508 q -0.60058,0 -1.02539,-0.46875 -0.4248,-0.46875 -0.4248,-1.12793 0,-0.673828 0.4248,-1.142578 0.42481,-0.46875 1.02539,-0.46875 0.60059,0 1.02539,0.46875 0.43945,0.46875 0.43945,1.142578 0,0.673828 -0.43945,1.142578 -0.4248,0.454102 -1.02539,0.454102 z m 0.35156,3.208008 q 0.0879,0.04395 0.0733,0.117187 l -2.95899,10.458984 q -0.20508,0.834961 -0.20508,0.996094 0,0.219727 0.0879,0.38086 0.0733,0.175781 0.36621,0.175781 0.49805,0 1.31836,-0.864258 0.4834,-0.512695 1.18653,-1.464844 l 0.38086,0.322266 -0.14649,0.205078 q -1.09863,1.538086 -1.8164,2.211914 -1.12793,1.054688 -2.19727,1.054688 -0.62988,0 -1.05469,-0.527344 -0.41015,-0.527344 -0.41015,-1.245117 0,-0.424805 0.0586,-0.732422 0.0586,-0.322266 0.21973,-0.9375 l 2.05078,-7.529297 q 0.0439,-0.175781 0.0732,-0.322266 0.0293,-0.146484 0.0293,-0.292968 0,-0.527344 -0.39551,-0.644532 -0.38086,-0.131836 -1.52344,-0.131836 v -0.483398 q 1.21582,-0.146484 1.74317,-0.219727 0.54199,-0.08789 1.08398,-0.175781 0.70313,-0.117187 1.33301,-0.263672 0.62988,-0.146484 0.70312,-0.08789 z" />
                        <path d="m 264.17871,40.033203 q 0,-0.117187 0.0146,-0.263672 0.0147,-0.161133 0.0586,-0.322265 l 2.75391,-10.239258 h -2.22656 q 0,-0.395508 0.0586,-0.498047 0.0586,-0.102539 0.29297,-0.205078 1.47949,-0.629883 2.28516,-1.215821 0.82031,-0.585937 2.22656,-2.255859 l 0.23437,-0.27832 q 0.0439,-0.05859 0.10254,-0.08789 0.0732,-0.04395 0.14649,-0.04395 0.14648,0.0293 0.20507,0.05859 0.0439,0.102539 0.0439,0.190429 0.0147,0.07324 0,0.161133 l -0.83496,3.193359 h 2.38769 l -0.17578,0.981446 h -2.49023 l -2.63672,9.858398 q -0.0732,0.263672 0.0439,0.512696 0.11718,0.234375 0.3955,0.234375 0.38086,0 1.06934,-0.761719 0.39551,-0.410156 1.33301,-1.625977 l 0.38086,0.219727 -0.20508,0.307617 q -1.25977,1.889648 -2.22656,2.636719 -0.95215,0.732422 -1.81641,0.732422 -0.74707,0 -1.08399,-0.395508 -0.33691,-0.395508 -0.33691,-0.893555 z" />
                        <path d="m 274.69629,21.356445 q 0.9375,-0.131836 1.50879,-0.205078 0.58594,-0.08789 1.01074,-0.161133 1.72852,-0.336914 1.86035,-0.366211 0.13184,-0.0293 0.20508,-0.0293 0.17578,0.08789 0.17578,0.219726 l -3.44238,13.081055 q 1.8457,-2.72461 3.01758,-3.984375 2.05078,-2.167969 3.76464,-2.167969 0.70313,0 1.34766,0.454102 0.65918,0.439453 0.65918,1.596679 0,0.278321 -0.0732,0.717774 -0.0732,0.439453 -0.17578,0.776367 l -1.97754,7.016601 q -0.0879,0.292969 -0.14649,0.57129 -0.0586,0.263671 -0.0586,0.483398 0,0.249023 0.11719,0.380859 0.11719,0.117188 0.33691,0.117188 0.4541,0 1.06934,-0.629883 0.38086,-0.395508 1.4209,-1.728516 l 0.38086,0.351563 q -1.0254,1.523437 -1.74317,2.226562 -1.27441,1.245118 -2.56348,1.245118 -0.58593,0 -0.98144,-0.366211 -0.39551,-0.366211 -0.39551,-1.054688 0,-0.19043 0.0147,-0.351562 0.0293,-0.175782 0.0879,-0.38086 l 2.25586,-8.583984 q 0.0293,-0.117188 0.0439,-0.234375 0.0293,-0.131836 0.0293,-0.263672 0,-0.366211 -0.21972,-0.571289 -0.23438,-0.205078 -0.60059,-0.205078 -0.98145,0 -2.47559,1.582031 -1.49414,1.567383 -2.51953,3.208008 -0.70312,1.157226 -1.06933,2.182617 Q 275.20898,37.308594 274.18359,41 h -2.2705 l 4.6875,-17.768555 q 0.0439,-0.190429 0.0586,-0.322265 0.0147,-0.131836 0.0147,-0.249024 0,-0.629883 -0.41016,-0.74707 -0.41015,-0.131836 -1.56738,-0.07324 z" />
                     </g>
                  </g>
               </g>
            </g>
         </g>
      </g>
   </svg>
</svg>
